<svg xmlns="http://www.w3.org/2000/svg" xmlns:xlink="http://www.w3.org/1999/xlink" width="500" zoomAndPan="magnify" viewBox="0 0 375 374.999991" height="500" preserveAspectRatio="xMidYMid meet" version="1.0"><defs><filter x="0%" y="0%" width="100%" height="100%" id="e6a9754d97"><feColorMatrix values="0 0 0 0 1 0 0 0 0 1 0 0 0 0 1 0 0 0 1 0" color-interpolation-filters="sRGB"/></filter><clipPath id="f07bc0b151"><path d="M 6.710938 119 L 351 119 L 351 325.5 L 6.710938 325.5 Z M 6.710938 119 " clip-rule="nonzero"/></clipPath><clipPath id="34ea77e90d"><path d="M 61 37.5 L 78 37.5 L 78 70 L 61 70 Z M 61 37.5 " clip-rule="nonzero"/></clipPath><clipPath id="a07ab8c6a0"><path d="M 100 37.5 L 117 37.5 L 117 70 L 100 70 Z M 100 37.5 " clip-rule="nonzero"/></clipPath><clipPath id="6963f07489"><path d="M 139 37.5 L 156 37.5 L 156 70 L 139 70 Z M 139 37.5 " clip-rule="nonzero"/></clipPath><clipPath id="5ec868b892"><path d="M 178 37.5 L 196 37.5 L 196 70 L 178 70 Z M 178 37.5 " clip-rule="nonzero"/></clipPath><clipPath id="f6695a4c10"><path d="M 217 37.5 L 235 37.5 L 235 70 L 217 70 Z M 217 37.5 " clip-rule="nonzero"/></clipPath><clipPath id="07b524b978"><path d="M 257 37.5 L 274 37.5 L 274 70 L 257 70 Z M 257 37.5 " clip-rule="nonzero"/></clipPath><clipPath id="ea1bae588c"><path d="M 296 37.5 L 313 37.5 L 313 70 L 296 70 Z M 296 37.5 " clip-rule="nonzero"/></clipPath><clipPath id="4f50bbcef9"><path d="M 349 51 L 368.210938 51 L 368.210938 325.5 L 349 325.5 Z M 349 51 " clip-rule="nonzero"/></clipPath><clipPath id="784a7a7697"><path d="M 6.710938 50 L 351 50 L 351 325.5 L 6.710938 325.5 Z M 6.710938 50 " clip-rule="nonzero"/></clipPath><mask id="52eb42a967"><g filter="url(#e6a9754d97)"><rect x="-37.5" width="450" fill="#000000" y="-37.499999" height="449.999989" fill-opacity="0.1"/></g></mask><clipPath id="af5638c23e"><path d="M 0.710938 1 L 344.878906 1 L 344.878906 275.441406 L 0.710938 275.441406 Z M 0.710938 1 " clip-rule="nonzero"/></clipPath><clipPath id="09c09e0ccb"><rect x="0" width="345" y="0" height="276"/></clipPath></defs><path fill="#3da2a4" d="M 350.054688 118.40625 L 349.871094 51.066406 L 24.160156 51.066406 L 19.890625 118.40625 L 19.855469 119.109375 L 350.074219 119.109375 Z M 304.582031 58.378906 C 308.644531 58.378906 311.96875 61.699219 311.96875 65.765625 C 311.96875 69.828125 308.644531 73.152344 304.582031 73.152344 C 300.515625 73.152344 297.195312 69.828125 297.195312 65.765625 C 297.195312 61.699219 300.515625 58.378906 304.582031 58.378906 Z M 265.398438 58.378906 C 269.464844 58.378906 272.785156 61.699219 272.785156 65.765625 C 272.785156 69.828125 269.480469 73.152344 265.398438 73.152344 C 261.332031 73.152344 258.011719 69.828125 258.011719 65.765625 C 258.011719 61.699219 261.332031 58.378906 265.398438 58.378906 Z M 226.214844 58.378906 C 230.28125 58.378906 233.605469 61.699219 233.605469 65.765625 C 233.605469 69.828125 230.300781 73.152344 226.214844 73.152344 C 222.132812 73.152344 218.828125 69.828125 218.828125 65.765625 C 218.828125 61.699219 222.132812 58.378906 226.214844 58.378906 Z M 187.015625 58.378906 C 191.078125 58.378906 194.402344 61.699219 194.402344 65.765625 C 194.402344 69.828125 191.097656 73.152344 187.015625 73.152344 C 182.949219 73.152344 179.628906 69.828125 179.628906 65.765625 C 179.644531 61.699219 182.949219 58.378906 187.015625 58.378906 Z M 147.832031 58.378906 C 151.898438 58.378906 155.21875 61.699219 155.21875 65.765625 C 155.21875 69.828125 151.917969 73.152344 147.832031 73.152344 C 143.769531 73.152344 140.445312 69.828125 140.445312 65.765625 C 140.445312 61.699219 143.769531 58.378906 147.832031 58.378906 Z M 108.648438 58.378906 C 112.714844 58.378906 116.039062 61.699219 116.039062 65.765625 C 116.039062 69.828125 112.734375 73.152344 108.648438 73.152344 C 104.585938 73.152344 101.261719 69.828125 101.261719 65.765625 C 101.261719 61.699219 104.566406 58.378906 108.648438 58.378906 Z M 69.449219 58.378906 C 73.515625 58.378906 76.835938 61.699219 76.835938 65.765625 C 76.835938 69.828125 73.53125 73.152344 69.449219 73.152344 C 65.382812 73.152344 62.0625 69.828125 62.0625 65.765625 C 62.082031 61.699219 65.382812 58.378906 69.449219 58.378906 Z M 69.449219 58.378906 " fill-opacity="1" fill-rule="nonzero"/><g clip-path="url(#f07bc0b151)"><path fill="#ffffff" d="M 350.574219 325.359375 L 6.710938 325.359375 L 6.898438 322.445312 L 7.546875 312.3125 L 19.78125 119.832031 L 19.835938 119.109375 L 350.054688 119.109375 Z M 350.574219 325.359375 " fill-opacity="1" fill-rule="nonzero"/></g><path fill="#ffffff" d="M 69.449219 54.128906 C 63.027344 54.128906 57.8125 59.34375 57.8125 65.765625 C 57.8125 72.167969 63.027344 77.402344 69.449219 77.402344 C 75.851562 77.402344 81.085938 72.1875 81.085938 65.765625 C 81.085938 59.34375 75.871094 54.128906 69.449219 54.128906 Z M 69.449219 73.152344 C 65.382812 73.152344 62.0625 69.847656 62.0625 65.765625 C 62.0625 61.699219 65.367188 58.378906 69.449219 58.378906 C 73.515625 58.378906 76.835938 61.683594 76.835938 65.765625 C 76.835938 69.828125 73.53125 73.152344 69.449219 73.152344 Z M 69.449219 73.152344 " fill-opacity="1" fill-rule="nonzero"/><path fill="#ffffff" d="M 108.648438 54.128906 C 102.246094 54.128906 97.011719 59.34375 97.011719 65.765625 C 97.011719 72.167969 102.226562 77.402344 108.648438 77.402344 C 115.074219 77.402344 120.289062 72.1875 120.289062 65.765625 C 120.269531 59.34375 115.054688 54.128906 108.648438 54.128906 Z M 108.648438 73.152344 C 104.585938 73.152344 101.261719 69.847656 101.261719 65.765625 C 101.261719 61.699219 104.566406 58.378906 108.648438 58.378906 C 112.714844 58.378906 116.039062 61.683594 116.039062 65.765625 C 116.019531 69.828125 112.714844 73.152344 108.648438 73.152344 Z M 108.648438 73.152344 " fill-opacity="1" fill-rule="nonzero"/><path fill="#ffffff" d="M 147.832031 54.128906 C 141.410156 54.128906 136.195312 59.34375 136.195312 65.765625 C 136.195312 72.167969 141.410156 77.402344 147.832031 77.402344 C 154.234375 77.402344 159.46875 72.1875 159.46875 65.765625 C 159.46875 59.34375 154.234375 54.128906 147.832031 54.128906 Z M 147.832031 73.152344 C 143.769531 73.152344 140.445312 69.847656 140.445312 65.765625 C 140.445312 61.699219 143.75 58.378906 147.832031 58.378906 C 151.898438 58.378906 155.21875 61.683594 155.21875 65.765625 C 155.21875 69.828125 151.898438 73.152344 147.832031 73.152344 Z M 147.832031 73.152344 " fill-opacity="1" fill-rule="nonzero"/><path fill="#ffffff" d="M 187.015625 54.128906 C 180.59375 54.128906 175.378906 59.34375 175.378906 65.765625 C 175.378906 72.167969 180.59375 77.402344 187.015625 77.402344 C 193.4375 77.402344 198.652344 72.1875 198.652344 65.765625 C 198.652344 59.34375 193.4375 54.128906 187.015625 54.128906 Z M 187.015625 73.152344 C 182.949219 73.152344 179.628906 69.847656 179.628906 65.765625 C 179.628906 61.699219 182.933594 58.378906 187.015625 58.378906 C 191.078125 58.378906 194.402344 61.683594 194.402344 65.765625 C 194.402344 69.828125 191.097656 73.152344 187.015625 73.152344 Z M 187.015625 73.152344 " fill-opacity="1" fill-rule="nonzero"/><path fill="#ffffff" d="M 226.214844 54.128906 C 219.792969 54.128906 214.578125 59.34375 214.578125 65.765625 C 214.578125 72.167969 219.792969 77.402344 226.214844 77.402344 C 232.621094 77.402344 237.855469 72.1875 237.855469 65.765625 C 237.835938 59.34375 232.621094 54.128906 226.214844 54.128906 Z M 226.214844 73.152344 C 222.152344 73.152344 218.828125 69.847656 218.828125 65.765625 C 218.828125 61.699219 222.132812 58.378906 226.214844 58.378906 C 230.28125 58.378906 233.605469 61.683594 233.605469 65.765625 C 233.585938 69.828125 230.28125 73.152344 226.214844 73.152344 Z M 226.214844 73.152344 " fill-opacity="1" fill-rule="nonzero"/><path fill="#ffffff" d="M 265.398438 54.128906 C 258.976562 54.128906 253.761719 59.34375 253.761719 65.765625 C 253.761719 72.167969 258.976562 77.402344 265.398438 77.402344 C 271.800781 77.402344 277.035156 72.1875 277.035156 65.765625 C 277.019531 59.34375 271.800781 54.128906 265.398438 54.128906 Z M 265.398438 73.152344 C 261.332031 73.152344 258.011719 69.847656 258.011719 65.765625 C 258.011719 61.699219 261.316406 58.378906 265.398438 58.378906 C 269.464844 58.378906 272.785156 61.683594 272.785156 65.765625 C 272.785156 69.828125 269.464844 73.152344 265.398438 73.152344 Z M 265.398438 73.152344 " fill-opacity="1" fill-rule="nonzero"/><path fill="#ffffff" d="M 304.582031 54.128906 C 298.175781 54.128906 292.945312 59.34375 292.945312 65.765625 C 292.945312 72.167969 298.160156 77.402344 304.582031 77.402344 C 311.003906 77.402344 316.21875 72.1875 316.21875 65.765625 C 316.21875 59.34375 311.003906 54.128906 304.582031 54.128906 Z M 304.582031 73.152344 C 300.515625 73.152344 297.195312 69.847656 297.195312 65.765625 C 297.195312 61.699219 300.496094 58.378906 304.582031 58.378906 C 308.644531 58.378906 311.96875 61.683594 311.96875 65.765625 C 311.96875 69.828125 308.644531 73.152344 304.582031 73.152344 Z M 304.582031 73.152344 " fill-opacity="1" fill-rule="nonzero"/><path fill="#ffffff" d="M 64.902344 102.867188 C 64.828125 104.707031 63.992188 106.023438 62.394531 106.824219 C 61.5625 107.230469 60.632812 107.433594 59.628906 107.417969 C 57.886719 107.398438 56.53125 106.839844 55.527344 105.765625 C 54.785156 104.929688 54.433594 103.925781 54.453125 102.757812 L 54.601562 90.933594 C 54.617188 89.132812 55.433594 87.835938 57.050781 87.019531 C 57.902344 86.589844 58.851562 86.386719 59.890625 86.40625 C 61.652344 86.421875 63.027344 87 64.011719 88.148438 C 64.699219 88.964844 65.03125 89.933594 65.03125 91.082031 L 62.636719 91.046875 C 62.65625 90.007812 62.136719 89.28125 61.113281 88.875 C 60.726562 88.726562 60.296875 88.652344 59.871094 88.632812 C 58.757812 88.613281 57.941406 88.984375 57.402344 89.726562 C 57.144531 90.082031 57.011719 90.507812 57.011719 90.972656 L 56.863281 102.792969 C 56.847656 103.835938 57.367188 104.558594 58.425781 104.964844 C 58.8125 105.113281 59.242188 105.1875 59.667969 105.207031 C 60.78125 105.226562 61.597656 104.855469 62.136719 104.113281 C 62.378906 103.742188 62.507812 103.3125 62.507812 102.867188 Z M 64.902344 102.867188 " fill-opacity="1" fill-rule="nonzero"/><path fill="#ffffff" d="M 71.007812 86.792969 L 74.570312 86.832031 L 78.304688 107.359375 L 75.871094 107.324219 L 75.257812 103.890625 L 69.839844 103.816406 L 69.132812 107.230469 L 66.683594 107.195312 Z M 72.957031 90.824219 L 72.753906 89.246094 L 72.550781 90.824219 L 70.339844 101.589844 L 74.832031 101.644531 Z M 72.957031 90.824219 " fill-opacity="1" fill-rule="nonzero"/><path fill="#ffffff" d="M 80.957031 86.90625 L 83.351562 86.945312 L 83.128906 105.171875 L 90.628906 105.261719 L 90.589844 107.527344 L 80.695312 107.398438 Z M 80.957031 86.90625 " fill-opacity="1" fill-rule="nonzero"/><path fill="#ffffff" d="M 95.546875 98.5625 L 95.453125 105.320312 L 102.953125 105.410156 L 102.914062 107.675781 L 93.023438 107.546875 L 93.28125 87.054688 L 103.175781 87.183594 L 103.136719 89.449219 L 95.640625 89.355469 L 95.546875 96.296875 L 101.914062 96.371094 L 101.875 98.636719 Z M 95.546875 98.5625 " fill-opacity="1" fill-rule="nonzero"/><path fill="#ffffff" d="M 113.53125 99.789062 L 114.105469 102.441406 L 114.292969 87.332031 L 116.6875 87.371094 L 116.425781 107.863281 L 114.328125 107.84375 L 109.152344 95.238281 L 108.574219 92.640625 L 108.390625 107.75 L 105.996094 107.714844 L 106.253906 87.222656 L 108.371094 87.242188 Z M 113.53125 99.789062 " fill-opacity="1" fill-rule="nonzero"/><path fill="#ffffff" d="M 130.832031 103.238281 C 130.8125 104.742188 130.238281 105.96875 129.105469 106.898438 C 128.214844 107.621094 127.175781 107.953125 125.984375 107.953125 L 119.75 107.878906 L 120.007812 87.390625 L 126.226562 87.464844 C 127.84375 87.480469 129.125 88.09375 130.050781 89.300781 C 130.683594 90.136719 130.980469 91.082031 130.980469 92.085938 Z M 128.417969 103.222656 L 128.546875 92.085938 C 128.566406 91.175781 128.15625 90.507812 127.339844 90.0625 C 126.988281 89.859375 126.597656 89.746094 126.171875 89.746094 L 122.367188 89.691406 L 122.164062 105.652344 L 125.96875 105.707031 C 126.894531 105.726562 127.582031 105.320312 128.046875 104.503906 C 128.304688 104.09375 128.417969 103.667969 128.417969 103.222656 Z M 128.417969 103.222656 " fill-opacity="1" fill-rule="nonzero"/><path fill="#ffffff" d="M 136.195312 99.0625 L 136.101562 105.820312 L 143.601562 105.914062 L 143.5625 108.175781 L 133.671875 108.046875 L 133.929688 87.554688 L 143.824219 87.6875 L 143.785156 89.949219 L 136.289062 89.859375 L 136.195312 96.800781 L 142.5625 96.875 L 142.523438 99.136719 Z M 136.195312 99.0625 " fill-opacity="1" fill-rule="nonzero"/><path fill="#ffffff" d="M 154.609375 99.15625 L 157.984375 108.34375 L 155.183594 108.308594 L 152.214844 99.398438 L 149.167969 99.359375 L 149.058594 108.234375 L 146.664062 108.195312 L 146.921875 87.703125 L 153.140625 87.777344 C 154.757812 87.796875 156.035156 88.410156 156.964844 89.617188 C 157.597656 90.453125 157.894531 91.398438 157.894531 92.398438 L 157.855469 94.664062 C 157.835938 96.1875 157.242188 97.410156 156.074219 98.339844 C 155.589844 98.730469 155.109375 98.988281 154.609375 99.15625 Z M 155.425781 94.664062 L 155.460938 92.398438 C 155.480469 91.492188 155.070312 90.824219 154.253906 90.378906 C 153.902344 90.171875 153.511719 90.0625 153.085938 90.0625 L 149.28125 90.007812 L 149.1875 97.097656 L 152.992188 97.152344 C 153.921875 97.171875 154.609375 96.761719 155.070312 95.945312 C 155.292969 95.554688 155.40625 95.128906 155.425781 94.664062 Z M 155.425781 94.664062 " fill-opacity="1" fill-rule="nonzero"/><path fill="#afafaf" d="M 77.355469 162.46875 L 54.804688 162.46875 L 55.675781 139.917969 L 78.246094 139.917969 Z M 77.355469 162.46875 " fill-opacity="1" fill-rule="nonzero"/><path fill="#afafaf" d="M 117.167969 162.46875 L 94.597656 162.46875 L 95.472656 139.917969 L 118.042969 139.917969 Z M 117.167969 162.46875 " fill-opacity="1" fill-rule="nonzero"/><path fill="#afafaf" d="M 156.964844 162.46875 L 134.414062 162.46875 L 135.285156 139.917969 L 157.835938 139.917969 Z M 156.964844 162.46875 " fill-opacity="1" fill-rule="nonzero"/><path fill="#afafaf" d="M 196.757812 162.46875 L 174.207031 162.46875 L 175.082031 139.917969 L 197.632812 139.917969 Z M 196.757812 162.46875 " fill-opacity="1" fill-rule="nonzero"/><path fill="#afafaf" d="M 236.554688 162.46875 L 214.003906 162.46875 L 214.875 139.917969 L 237.425781 139.917969 Z M 236.554688 162.46875 " fill-opacity="1" fill-rule="nonzero"/><path fill="#afafaf" d="M 276.351562 162.46875 L 253.796875 162.46875 L 254.671875 139.917969 L 277.222656 139.917969 Z M 276.351562 162.46875 " fill-opacity="1" fill-rule="nonzero"/><path fill="#afafaf" d="M 316.144531 162.46875 L 293.59375 162.46875 L 294.464844 139.917969 L 317.015625 139.917969 Z M 316.144531 162.46875 " fill-opacity="1" fill-rule="nonzero"/><path fill="#afafaf" d="M 76 197.863281 L 53.429688 197.863281 L 54.304688 175.3125 L 76.875 175.3125 Z M 76 197.863281 " fill-opacity="1" fill-rule="nonzero"/><path fill="#afafaf" d="M 115.796875 197.863281 L 93.246094 197.863281 L 94.117188 175.3125 L 116.667969 175.3125 Z M 115.796875 197.863281 " fill-opacity="1" fill-rule="nonzero"/><path fill="#afafaf" d="M 155.589844 197.863281 L 133.039062 197.863281 L 133.910156 175.3125 L 156.464844 175.3125 Z M 155.589844 197.863281 " fill-opacity="1" fill-rule="nonzero"/><path fill="#afafaf" d="M 195.386719 197.863281 L 172.835938 197.863281 L 173.707031 175.3125 L 196.257812 175.3125 Z M 195.386719 197.863281 " fill-opacity="1" fill-rule="nonzero"/><path fill="#afafaf" d="M 235.179688 197.863281 L 212.628906 197.863281 L 213.5 175.3125 L 236.054688 175.3125 Z M 235.179688 197.863281 " fill-opacity="1" fill-rule="nonzero"/><path fill="#afafaf" d="M 274.976562 197.863281 L 252.425781 197.863281 L 253.296875 175.3125 L 275.847656 175.3125 Z M 274.976562 197.863281 " fill-opacity="1" fill-rule="nonzero"/><path fill="#afafaf" d="M 314.789062 197.863281 L 292.21875 197.863281 L 293.09375 175.3125 L 315.664062 175.3125 Z M 314.789062 197.863281 " fill-opacity="1" fill-rule="nonzero"/><path fill="#afafaf" d="M 74.628906 233.261719 L 52.074219 233.261719 L 52.949219 210.691406 L 75.5 210.691406 Z M 74.628906 233.261719 " fill-opacity="1" fill-rule="nonzero"/><path fill="#afafaf" d="M 114.421875 233.261719 L 91.871094 233.261719 L 92.742188 210.691406 L 115.296875 210.691406 Z M 114.421875 233.261719 " fill-opacity="1" fill-rule="nonzero"/><path fill="#afafaf" d="M 154.21875 233.261719 L 131.664062 233.261719 L 132.539062 210.691406 L 155.089844 210.691406 Z M 154.21875 233.261719 " fill-opacity="1" fill-rule="nonzero"/><path fill="#afafaf" d="M 194.011719 233.261719 L 171.460938 233.261719 L 172.332031 210.691406 L 194.886719 210.691406 Z M 194.011719 233.261719 " fill-opacity="1" fill-rule="nonzero"/><path fill="#afafaf" d="M 233.808594 233.261719 L 211.257812 233.261719 L 212.128906 210.691406 L 234.699219 210.691406 Z M 233.808594 233.261719 " fill-opacity="1" fill-rule="nonzero"/><path fill="#afafaf" d="M 273.621094 233.261719 L 251.050781 233.261719 L 251.921875 210.691406 L 274.492188 210.691406 Z M 273.621094 233.261719 " fill-opacity="1" fill-rule="nonzero"/><path fill="#afafaf" d="M 313.417969 233.261719 L 290.863281 233.261719 L 291.738281 210.691406 L 314.289062 210.691406 Z M 313.417969 233.261719 " fill-opacity="1" fill-rule="nonzero"/><path fill="#afafaf" d="M 73.253906 268.636719 L 50.703125 268.636719 L 51.574219 246.085938 L 74.125 246.085938 Z M 73.253906 268.636719 " fill-opacity="1" fill-rule="nonzero"/><path fill="#afafaf" d="M 113.050781 268.636719 L 90.496094 268.636719 L 91.371094 246.085938 L 113.921875 246.085938 Z M 113.050781 268.636719 " fill-opacity="1" fill-rule="nonzero"/><path fill="#afafaf" d="M 152.84375 268.636719 L 130.292969 268.636719 L 131.164062 246.085938 L 153.714844 246.085938 Z M 152.84375 268.636719 " fill-opacity="1" fill-rule="nonzero"/><path fill="#afafaf" d="M 192.65625 268.636719 L 170.085938 268.636719 L 170.960938 246.085938 L 193.53125 246.085938 Z M 192.65625 268.636719 " fill-opacity="1" fill-rule="nonzero"/><path fill="#afafaf" d="M 232.453125 268.636719 L 209.882812 268.636719 L 210.753906 246.085938 L 233.324219 246.085938 Z M 232.453125 268.636719 " fill-opacity="1" fill-rule="nonzero"/><path fill="#afafaf" d="M 272.246094 268.636719 L 249.695312 268.636719 L 250.570312 246.085938 L 273.121094 246.085938 Z M 272.246094 268.636719 " fill-opacity="1" fill-rule="nonzero"/><path fill="#afafaf" d="M 312.042969 268.636719 L 289.492188 268.636719 L 290.363281 246.085938 L 312.914062 246.085938 Z M 312.042969 268.636719 " fill-opacity="1" fill-rule="nonzero"/><path fill="#afafaf" d="M 71.878906 304.035156 L 49.328125 304.035156 L 50.203125 281.480469 L 72.753906 281.480469 Z M 71.878906 304.035156 " fill-opacity="1" fill-rule="nonzero"/><path fill="#afafaf" d="M 111.695312 304.035156 L 89.125 304.035156 L 89.996094 281.480469 L 112.566406 281.480469 Z M 111.695312 304.035156 " fill-opacity="1" fill-rule="nonzero"/><path fill="#afafaf" d="M 151.488281 304.035156 L 128.917969 304.035156 L 129.792969 281.480469 L 152.363281 281.480469 Z M 151.488281 304.035156 " fill-opacity="1" fill-rule="nonzero"/><g clip-path="url(#34ea77e90d)"><path fill="#242f3c" d="M 69.335938 69.753906 C 64.828125 69.753906 61.171875 66.097656 61.171875 61.589844 L 61.171875 45.699219 C 61.171875 41.191406 64.828125 37.535156 69.335938 37.535156 C 73.847656 37.535156 77.503906 41.191406 77.503906 45.699219 L 77.503906 61.589844 C 77.503906 66.097656 73.847656 69.753906 69.335938 69.753906 Z M 69.335938 69.753906 " fill-opacity="1" fill-rule="nonzero"/></g><g clip-path="url(#a07ab8c6a0)"><path fill="#242f3c" d="M 108.519531 69.753906 C 104.011719 69.753906 100.351562 66.097656 100.351562 61.589844 L 100.351562 45.699219 C 100.351562 41.191406 104.011719 37.535156 108.519531 37.535156 C 113.03125 37.535156 116.6875 41.191406 116.6875 45.699219 L 116.6875 61.589844 C 116.6875 66.097656 113.03125 69.753906 108.519531 69.753906 Z M 108.519531 69.753906 " fill-opacity="1" fill-rule="nonzero"/></g><g clip-path="url(#6963f07489)"><path fill="#242f3c" d="M 147.703125 69.753906 C 143.191406 69.753906 139.535156 66.097656 139.535156 61.589844 L 139.535156 45.699219 C 139.535156 41.191406 143.191406 37.535156 147.703125 37.535156 C 152.214844 37.535156 155.871094 41.191406 155.871094 45.699219 L 155.871094 61.589844 C 155.871094 66.097656 152.214844 69.753906 147.703125 69.753906 Z M 147.703125 69.753906 " fill-opacity="1" fill-rule="nonzero"/></g><g clip-path="url(#5ec868b892)"><path fill="#242f3c" d="M 186.886719 69.753906 C 182.375 69.753906 178.71875 66.097656 178.71875 61.589844 L 178.71875 45.699219 C 178.71875 41.191406 182.375 37.535156 186.886719 37.535156 C 191.394531 37.535156 195.050781 41.191406 195.050781 45.699219 L 195.050781 61.589844 C 195.050781 66.097656 191.394531 69.753906 186.886719 69.753906 Z M 186.886719 69.753906 " fill-opacity="1" fill-rule="nonzero"/></g><g clip-path="url(#f6695a4c10)"><path fill="#242f3c" d="M 226.085938 69.753906 C 221.574219 69.753906 217.917969 66.097656 217.917969 61.589844 L 217.917969 45.699219 C 217.917969 41.191406 221.574219 37.535156 226.085938 37.535156 C 230.597656 37.535156 234.253906 41.191406 234.253906 45.699219 L 234.253906 61.589844 C 234.253906 66.097656 230.597656 69.753906 226.085938 69.753906 Z M 226.085938 69.753906 " fill-opacity="1" fill-rule="nonzero"/></g><g clip-path="url(#07b524b978)"><path fill="#242f3c" d="M 265.269531 69.753906 C 260.757812 69.753906 257.101562 66.097656 257.101562 61.589844 L 257.101562 45.699219 C 257.101562 41.191406 260.757812 37.535156 265.269531 37.535156 C 269.777344 37.535156 273.4375 41.191406 273.4375 45.699219 L 273.4375 61.589844 C 273.4375 66.097656 269.777344 69.753906 265.269531 69.753906 Z M 265.269531 69.753906 " fill-opacity="1" fill-rule="nonzero"/></g><g clip-path="url(#ea1bae588c)"><path fill="#242f3c" d="M 304.453125 69.753906 C 299.941406 69.753906 296.285156 66.097656 296.285156 61.589844 L 296.285156 45.699219 C 296.285156 41.191406 299.941406 37.535156 304.453125 37.535156 C 308.960938 37.535156 312.617188 41.191406 312.617188 45.699219 L 312.617188 61.589844 C 312.617188 66.097656 308.960938 69.753906 304.453125 69.753906 Z M 304.453125 69.753906 " fill-opacity="1" fill-rule="nonzero"/></g><g clip-path="url(#4f50bbcef9)"><path fill="#242f3c" d="M 368.28125 325.359375 L 350.574219 325.359375 L 349.871094 51.066406 Z M 368.28125 325.359375 " fill-opacity="1" fill-rule="nonzero"/></g><path fill="#242f3c" d="M 350.054688 118.40625 L 350.054688 119.832031 L 19.78125 119.832031 L 19.871094 118.40625 Z M 350.054688 118.40625 " fill-opacity="1" fill-rule="nonzero"/><g clip-path="url(#784a7a7697)"><g mask="url(#52eb42a967)"><g transform="matrix(1, 0, 0, 1, 6, 50)"><g clip-path="url(#09c09e0ccb)"><g clip-path="url(#af5638c23e)"><path fill="#000000" d="M 344.574219 275.359375 L 0.710938 275.359375 L 0.898438 272.445312 L 1.546875 262.292969 C 52.199219 262.050781 183.390625 257.078125 252.011719 214.035156 C 294.332031 187.472656 313.691406 125.070312 322.46875 69.109375 C 326.441406 43.8125 328.222656 19.8125 329.019531 1.046875 L 343.890625 1.046875 L 344.074219 69.109375 Z M 344.574219 275.359375 " fill-opacity="1" fill-rule="nonzero"/></g></g></g></g></g></svg>