<svg xmlns="http://www.w3.org/2000/svg" xmlns:xlink="http://www.w3.org/1999/xlink" width="500" zoomAndPan="magnify" viewBox="0 0 375 374.999991" height="500" preserveAspectRatio="xMidYMid meet" version="1.0"><defs><clipPath id="f52a3a4c9a"><path d="M 5.972656 57.027344 L 368.972656 57.027344 L 368.972656 318 L 5.972656 318 Z M 5.972656 57.027344 " clip-rule="nonzero"/></clipPath></defs><g clip-path="url(#f52a3a4c9a)"><path fill="#afafaf" d="M 369.019531 295.277344 C 369.019531 299.363281 367.855469 303.144531 365.960938 306.457031 C 363.789062 310.265625 360.566406 313.359375 356.652344 315.375 C 353.539062 316.980469 350.058594 317.96875 346.328125 317.96875 L 28.660156 317.96875 C 19.996094 317.96875 12.5625 313.058594 8.742188 305.925781 C 7.035156 302.734375 5.972656 299.144531 5.972656 295.277344 L 5.972656 79.71875 C 5.972656 67.1875 16.132812 57.027344 28.660156 57.027344 L 346.328125 57.027344 C 352.988281 57.027344 358.914062 59.941406 363.070312 64.515625 C 363.113281 64.574219 363.15625 64.640625 363.210938 64.695312 C 364.066406 65.648438 364.839844 66.644531 365.515625 67.730469 C 365.59375 67.839844 365.640625 67.960938 365.714844 68.085938 C 366.359375 69.160156 366.945312 70.265625 367.410156 71.453125 C 368.417969 74.023438 369.019531 76.792969 369.019531 79.71875 Z M 251.179688 190.332031 L 346.074219 285.21875 C 346.117188 284.773438 346.328125 284.386719 346.328125 283.929688 L 346.328125 95.195312 Z M 334.984375 295.277344 C 335.449219 295.277344 335.835938 295.066406 336.289062 295.011719 L 241.394531 200.117188 L 203.835938 237.675781 C 194.617188 246.90625 179.660156 246.90625 170.445312 237.675781 L 133.238281 200.472656 L 38.699219 295.011719 C 39.144531 295.066406 39.542969 295.277344 40.007812 295.277344 Z M 28.660156 95.90625 L 28.660156 283.929688 C 28.660156 284.175781 28.785156 284.386719 28.804688 284.628906 L 123.089844 190.332031 Z M 40.007812 79.71875 C 39.542969 79.71875 39.144531 79.929688 38.699219 79.984375 L 179.472656 220.757812 C 183.90625 225.1875 191.085938 225.1875 195.515625 220.757812 L 336.289062 79.984375 C 335.835938 79.929688 335.449219 79.71875 334.984375 79.71875 Z M 40.007812 79.71875 " fill-opacity="1" fill-rule="nonzero"/></g></svg>