<svg xmlns="http://www.w3.org/2000/svg" xmlns:xlink="http://www.w3.org/1999/xlink" width="500" zoomAndPan="magnify" viewBox="0 0 375 374.999991" height="500" preserveAspectRatio="xMidYMid meet" version="1.0"><defs><clipPath id="1b2e8d5134"><path d="M 81.121094 19.382812 L 370.859375 19.382812 L 370.859375 311.324219 L 81.121094 311.324219 Z M 81.121094 19.382812 " clip-rule="nonzero"/></clipPath><clipPath id="b5de6d7ff7"><path d="M 142.488281 183.566406 L 175.765625 183.566406 L 175.765625 241.710938 L 142.488281 241.710938 Z M 142.488281 183.566406 " clip-rule="nonzero"/></clipPath><clipPath id="2f6f4ea8c9"><path d="M 15 154.027344 L 165 154.027344 L 165 337.40625 L 15 337.40625 Z M 15 154.027344 " clip-rule="nonzero"/></clipPath><clipPath id="06f2f7b55e"><path d="M 4.121094 250 L 38 250 L 38 308 L 4.121094 308 Z M 4.121094 250 " clip-rule="nonzero"/></clipPath></defs><g clip-path="url(#1b2e8d5134)"><path fill="#132540" d="M 212.785156 186.492188 C 212.785156 182.976562 210.082031 180.082031 206.648438 179.761719 C 206.445312 179.800781 206.238281 179.820312 206.023438 179.820312 C 205.804688 179.820312 205.597656 179.800781 205.394531 179.761719 C 201.960938 180.082031 199.261719 182.976562 199.261719 186.492188 C 199.261719 190.222656 202.292969 193.253906 206.023438 193.253906 C 209.75 193.253906 212.785156 190.222656 212.785156 186.492188 Z M 212.285156 61.820312 L 212.285156 46.101562 L 199.757812 46.101562 L 199.757812 61.820312 C 201.839844 61.71875 203.933594 61.667969 206.023438 61.667969 C 208.105469 61.667969 210.203125 61.71875 212.285156 61.820312 Z M 234.132812 39.207031 L 234.132812 26.28125 L 177.910156 26.28125 L 177.910156 39.207031 Z M 273.628906 170.273438 C 281.992188 166.734375 290.863281 164.894531 300 164.789062 C 290.011719 121.238281 251.152344 90.0625 206.023438 90.0625 C 152.847656 90.0625 109.589844 133.320312 109.589844 186.492188 C 109.589844 239.667969 152.847656 282.925781 206.023438 282.925781 C 219.195312 282.925781 231.902344 280.335938 243.851562 275.222656 C 240.902344 271.082031 238.417969 266.636719 236.417969 261.914062 C 232.773438 253.292969 230.925781 244.136719 230.925781 234.695312 C 230.925781 225.261719 232.773438 216.101562 236.417969 207.480469 C 239.121094 201.105469 242.707031 195.226562 247.125 189.941406 L 219.238281 189.941406 C 217.707031 195.808594 212.363281 200.148438 206.023438 200.148438 C 198.492188 200.148438 192.363281 194.023438 192.363281 186.492188 C 192.363281 180.152344 196.707031 174.808594 202.574219 173.277344 L 202.574219 123 C 202.574219 121.09375 204.117188 119.550781 206.023438 119.550781 C 207.925781 119.550781 209.46875 121.09375 209.46875 123 L 209.46875 173.277344 C 214.234375 174.523438 217.992188 178.28125 219.238281 183.046875 L 253.722656 183.046875 C 259.597656 177.671875 266.285156 173.382812 273.628906 170.273438 Z M 307.121094 165.058594 C 312.386719 165.523438 317.542969 166.582031 322.546875 168.214844 C 314.222656 114.613281 270.03125 73.253906 215.460938 68.933594 C 212.355469 68.683594 209.179688 68.558594 206.023438 68.558594 C 202.867188 68.558594 199.691406 68.683594 196.585938 68.933594 C 135.746094 73.75 88.089844 125.386719 88.089844 186.492188 C 88.089844 251.523438 140.992188 304.425781 206.023438 304.425781 C 224.820312 304.425781 243.339844 299.9375 259.929688 291.410156 C 256.921875 289.226562 254.070312 286.804688 251.402344 284.136719 C 250.324219 283.058594 249.289062 281.945312 248.285156 280.808594 C 234.976562 286.792969 220.769531 289.820312 206.023438 289.820312 C 192.074219 289.820312 178.542969 287.089844 165.800781 281.699219 C 153.496094 276.496094 142.445312 269.046875 132.957031 259.558594 C 123.46875 250.070312 116.015625 239.019531 110.816406 226.714844 C 105.425781 213.972656 102.695312 200.441406 102.695312 186.492188 C 102.695312 172.546875 105.425781 159.015625 110.816406 146.273438 C 116.015625 133.964844 123.46875 122.917969 132.957031 113.429688 C 142.445312 103.941406 153.496094 96.492188 165.800781 91.289062 C 178.542969 85.894531 192.074219 83.164062 206.023438 83.164062 C 218.402344 83.164062 230.519531 85.335938 242.023438 89.609375 C 253.136719 93.742188 263.394531 99.726562 272.511719 107.394531 C 290.164062 122.25 302.386719 142.644531 307.121094 165.058594 Z M 363.867188 234.695312 C 363.867188 199.945312 335.597656 171.671875 300.84375 171.671875 C 266.09375 171.671875 237.820312 199.945312 237.820312 234.695312 C 237.820312 269.449219 266.09375 297.71875 300.84375 297.71875 C 335.597656 297.71875 363.867188 269.449219 363.867188 234.695312 Z M 365.269531 207.480469 C 368.914062 216.101562 370.765625 225.261719 370.765625 234.695312 C 370.765625 244.136719 368.914062 253.292969 365.269531 261.914062 C 361.746094 270.242188 356.703125 277.71875 350.285156 284.136719 C 343.863281 290.558594 336.386719 295.597656 328.0625 299.121094 C 319.441406 302.769531 310.28125 304.617188 300.84375 304.617188 C 291.40625 304.617188 282.25 302.769531 273.628906 299.121094 C 271.207031 298.097656 268.863281 296.941406 266.589844 295.664062 C 248.152344 305.914062 227.25 311.324219 206.023438 311.324219 C 189.171875 311.324219 172.824219 308.019531 157.433594 301.511719 C 142.570312 295.222656 129.21875 286.222656 117.753906 274.761719 C 106.289062 263.296875 97.292969 249.945312 91.007812 235.082031 C 84.496094 219.6875 81.191406 203.34375 81.191406 186.492188 C 81.191406 154.894531 93.023438 124.738281 114.511719 101.589844 C 135.15625 79.351562 162.875 65.496094 192.863281 62.351562 L 192.863281 46.101562 L 174.460938 46.101562 C 172.558594 46.101562 171.011719 44.558594 171.011719 42.65625 L 171.011719 22.832031 C 171.011719 20.929688 172.558594 19.382812 174.460938 19.382812 L 237.578125 19.382812 C 239.488281 19.382812 241.03125 20.929688 241.03125 22.832031 L 241.03125 42.65625 C 241.03125 44.558594 239.488281 46.101562 237.578125 46.101562 L 219.179688 46.101562 L 219.179688 62.351562 C 232.722656 63.769531 245.832031 67.363281 258.191406 73.054688 C 271.128906 79.019531 282.882812 87.097656 293.132812 97.082031 C 303.359375 107.054688 311.742188 118.578125 318.039062 131.347656 C 324.214844 143.871094 328.203125 157.230469 329.90625 171.089844 C 337.496094 174.554688 344.34375 179.316406 350.285156 185.257812 C 356.703125 191.675781 361.746094 199.152344 365.269531 207.480469 " fill-opacity="1" fill-rule="nonzero"/></g><path fill="#132540" d="M 303.90625 248.285156 L 275.625 219.996094 L 261.875 233.746094 C 258.117188 237.503906 256.046875 242.527344 256.046875 247.886719 C 256.046875 253.25 258.117188 258.273438 261.875 262.027344 C 269.671875 269.828125 282.363281 269.828125 290.160156 262.027344 Z M 322.53125 229.660156 C 330.332031 221.863281 330.332031 209.171875 322.53125 201.375 C 318.773438 197.613281 313.75 195.542969 308.390625 195.542969 C 303.03125 195.542969 298.007812 197.613281 294.246094 201.375 L 280.5 215.121094 L 308.785156 243.40625 Z M 336.453125 269.542969 L 314.429688 247.515625 L 302.359375 259.582031 C 303.484375 262.476562 305.175781 265.066406 307.398438 267.289062 C 311.628906 271.523438 317.253906 273.851562 323.238281 273.851562 C 328.058594 273.851562 332.640625 272.339844 336.453125 269.542969 Z M 341.332031 264.667969 C 344.132812 260.851562 345.644531 256.265625 345.644531 251.449219 C 345.644531 245.464844 343.3125 239.835938 339.078125 235.605469 C 336.730469 233.257812 333.90625 231.46875 330.820312 230.359375 C 329.84375 231.835938 328.707031 233.238281 327.40625 234.535156 L 319.304688 242.640625 Z M 343.957031 230.730469 C 349.492188 236.261719 352.539062 243.621094 352.539062 251.449219 C 352.539062 259.273438 349.492188 266.628906 343.957031 272.164062 C 338.425781 277.699219 331.066406 280.746094 323.238281 280.746094 C 315.410156 280.746094 308.054688 277.699219 302.523438 272.164062 C 300.328125 269.972656 298.53125 267.503906 297.148438 264.796875 L 295.035156 266.90625 C 289.792969 272.148438 282.90625 274.773438 276.019531 274.773438 C 269.128906 274.773438 262.242188 272.148438 257 266.90625 C 251.9375 261.847656 249.148438 255.09375 249.148438 247.886719 C 249.148438 240.6875 251.9375 233.933594 257 228.871094 L 273.1875 212.683594 L 289.371094 196.496094 C 294.433594 191.4375 301.1875 188.648438 308.390625 188.648438 C 315.59375 188.648438 322.347656 191.4375 327.40625 196.496094 C 334.871094 203.960938 337.023438 214.753906 333.863281 224.140625 C 337.625 225.601562 341.066406 227.839844 343.957031 230.730469 " fill-opacity="1" fill-rule="nonzero"/><path fill="#ffffff" d="M 352.539062 251.449219 C 352.539062 243.621094 349.492188 236.261719 343.957031 230.730469 C 341.066406 227.839844 337.625 225.601562 333.863281 224.140625 C 337.023438 214.753906 334.871094 203.960938 327.40625 196.496094 C 322.347656 191.4375 315.59375 188.648438 308.390625 188.648438 C 301.1875 188.648438 294.433594 191.4375 289.371094 196.496094 L 273.1875 212.683594 L 257 228.871094 C 251.9375 233.933594 249.148438 240.6875 249.148438 247.886719 C 249.148438 255.09375 251.9375 261.847656 257 266.90625 C 262.242188 272.148438 269.128906 274.773438 276.019531 274.773438 C 282.90625 274.773438 289.792969 272.148438 295.035156 266.90625 L 297.148438 264.796875 C 298.53125 267.503906 300.328125 269.972656 302.523438 272.164062 C 308.054688 277.699219 315.410156 280.746094 323.238281 280.746094 C 331.066406 280.746094 338.425781 277.699219 343.957031 272.164062 C 349.492188 266.628906 352.539062 259.273438 352.539062 251.449219 Z M 300.84375 171.671875 C 335.597656 171.671875 363.867188 199.945312 363.867188 234.695312 C 363.867188 269.449219 335.597656 297.71875 300.84375 297.71875 C 266.09375 297.71875 237.820312 269.449219 237.820312 234.695312 C 237.820312 199.945312 266.09375 171.671875 300.84375 171.671875 " fill-opacity="1" fill-rule="nonzero"/><path fill="#ffffff" d="M 300 164.789062 C 290.863281 164.894531 281.992188 166.734375 273.628906 170.273438 C 266.285156 173.382812 259.597656 177.671875 253.722656 183.046875 L 219.238281 183.046875 C 217.992188 178.28125 214.234375 174.523438 209.46875 173.277344 L 209.46875 123 C 209.46875 121.09375 207.925781 119.550781 206.023438 119.550781 C 204.117188 119.550781 202.574219 121.09375 202.574219 123 L 202.574219 173.277344 C 196.707031 174.808594 192.363281 180.152344 192.363281 186.492188 C 192.363281 194.023438 198.492188 200.148438 206.023438 200.148438 C 212.363281 200.148438 217.707031 195.808594 219.238281 189.941406 L 247.125 189.941406 C 242.707031 195.226562 239.121094 201.105469 236.417969 207.480469 C 232.773438 216.101562 230.925781 225.261719 230.925781 234.695312 C 230.925781 244.136719 232.773438 253.292969 236.417969 261.914062 C 238.417969 266.636719 240.902344 271.082031 243.851562 275.222656 C 231.902344 280.335938 219.195312 282.925781 206.023438 282.925781 C 152.847656 282.925781 109.589844 239.667969 109.589844 186.492188 C 109.589844 133.320312 152.847656 90.0625 206.023438 90.0625 C 251.152344 90.0625 290.011719 121.238281 300 164.789062 " fill-opacity="1" fill-rule="nonzero"/><path fill="#ffbd59" d="M 345.644531 251.449219 C 345.644531 256.265625 344.132812 260.851562 341.332031 264.667969 L 319.304688 242.640625 L 327.40625 234.535156 C 328.707031 233.238281 329.84375 231.835938 330.820312 230.359375 C 333.90625 231.46875 336.730469 233.257812 339.078125 235.605469 C 343.3125 239.835938 345.644531 245.464844 345.644531 251.449219 " fill-opacity="1" fill-rule="nonzero"/><path fill="#ffbd59" d="M 314.429688 247.515625 L 336.453125 269.542969 C 332.640625 272.339844 328.058594 273.851562 323.238281 273.851562 C 317.253906 273.851562 311.628906 271.523438 307.398438 267.289062 C 305.175781 265.066406 303.484375 262.476562 302.359375 259.582031 L 314.429688 247.515625 " fill-opacity="1" fill-rule="nonzero"/><path fill="#ffbd59" d="M 322.53125 201.375 C 330.332031 209.171875 330.332031 221.863281 322.53125 229.660156 L 308.785156 243.40625 L 280.5 215.121094 L 294.246094 201.375 C 298.007812 197.613281 303.03125 195.542969 308.390625 195.542969 C 313.75 195.542969 318.773438 197.613281 322.53125 201.375 " fill-opacity="1" fill-rule="nonzero"/><path fill="#ffbd59" d="M 275.625 219.996094 L 303.90625 248.285156 L 290.160156 262.027344 C 282.363281 269.828125 269.671875 269.828125 261.875 262.027344 C 258.117188 258.273438 256.046875 253.25 256.046875 247.886719 C 256.046875 242.527344 258.117188 237.503906 261.875 233.746094 L 275.625 219.996094 " fill-opacity="1" fill-rule="nonzero"/><path fill="#51b6b6" d="M 322.546875 168.214844 C 317.542969 166.582031 312.386719 165.523438 307.121094 165.058594 C 302.386719 142.644531 290.164062 122.25 272.511719 107.394531 C 263.394531 99.726562 253.136719 93.742188 242.023438 89.609375 C 230.519531 85.335938 218.402344 83.164062 206.023438 83.164062 C 192.074219 83.164062 178.542969 85.894531 165.800781 91.289062 C 153.496094 96.492188 142.445312 103.941406 132.957031 113.429688 C 123.46875 122.917969 116.015625 133.964844 110.816406 146.273438 C 105.425781 159.015625 102.695312 172.546875 102.695312 186.492188 C 102.695312 200.441406 105.425781 213.972656 110.816406 226.714844 C 116.015625 239.019531 123.46875 250.070312 132.957031 259.558594 C 142.445312 269.046875 153.496094 276.496094 165.800781 281.699219 C 178.542969 287.089844 192.074219 289.820312 206.023438 289.820312 C 220.769531 289.820312 234.976562 286.792969 248.285156 280.808594 C 249.289062 281.945312 250.324219 283.058594 251.402344 284.136719 C 254.070312 286.804688 256.921875 289.226562 259.929688 291.410156 C 243.339844 299.9375 224.820312 304.425781 206.023438 304.425781 C 140.992188 304.425781 88.089844 251.523438 88.089844 186.492188 C 88.089844 125.386719 135.746094 73.75 196.585938 68.933594 C 199.691406 68.683594 202.867188 68.558594 206.023438 68.558594 C 209.179688 68.558594 212.355469 68.683594 215.460938 68.933594 C 270.03125 73.253906 314.222656 114.613281 322.546875 168.214844 " fill-opacity="1" fill-rule="nonzero"/><path fill="#51b6b6" d="M 234.132812 26.28125 L 234.132812 39.207031 L 177.910156 39.207031 L 177.910156 26.28125 L 234.132812 26.28125 " fill-opacity="1" fill-rule="nonzero"/><path fill="#51b6b6" d="M 212.285156 46.101562 L 212.285156 61.820312 C 210.203125 61.71875 208.105469 61.667969 206.023438 61.667969 C 203.933594 61.667969 201.839844 61.71875 199.757812 61.820312 L 199.757812 46.101562 L 212.285156 46.101562 " fill-opacity="1" fill-rule="nonzero"/><path fill="#51b6b6" d="M 206.648438 179.761719 C 210.082031 180.082031 212.785156 182.976562 212.785156 186.492188 C 212.785156 190.222656 209.75 193.253906 206.023438 193.253906 C 202.292969 193.253906 199.261719 190.222656 199.261719 186.492188 C 199.261719 182.976562 201.960938 180.082031 205.394531 179.761719 C 205.597656 179.800781 205.804688 179.820312 206.023438 179.820312 C 206.238281 179.820312 206.445312 179.800781 206.648438 179.761719 " fill-opacity="1" fill-rule="nonzero"/><path fill="#3da2a4" d="M 129.796875 305.207031 C 131.21875 304.515625 131.800781 302.792969 131.109375 301.371094 C 130.417969 299.953125 128.703125 299.367188 127.28125 300.058594 L 109.929688 308.539062 C 108.511719 309.234375 107.925781 310.953125 108.621094 312.375 C 109.121094 313.390625 110.132812 313.988281 111.195312 313.988281 C 111.613281 313.988281 112.042969 313.890625 112.449219 313.6875 Z M 158.910156 295.316406 C 159.363281 296.261719 158.96875 297.410156 158.027344 297.875 L 89.324219 331.472656 C 88.382812 331.925781 87.238281 331.53125 86.773438 330.585938 L 79.964844 316.625 L 152.085938 281.34375 L 158.910156 295.316406 " fill-opacity="1" fill-rule="nonzero"/><path fill="#3da2a4" d="M 93.449219 161.078125 L 97.992188 170.382812 L 25.871094 205.667969 L 21.328125 196.347656 C 20.875 195.40625 21.265625 194.261719 22.210938 193.792969 L 90.910156 160.195312 C 91.816406 159.742188 92.984375 160.148438 93.449219 161.078125 " fill-opacity="1" fill-rule="nonzero"/><path fill="#afe5e9" d="M 100.5 175.542969 L 149.582031 276.195312 L 77.449219 311.464844 L 28.386719 210.828125 L 100.5 175.542969 " fill-opacity="1" fill-rule="nonzero"/><g clip-path="url(#b5de6d7ff7)"><path fill="#1c3a4e" d="M 175.675781 222.246094 C 176.082031 228.074219 175.328125 233.84375 173.445312 239.40625 C 173.039062 240.613281 171.929688 241.367188 170.738281 241.367188 C 170.429688 241.367188 170.117188 241.320312 169.820312 241.210938 C 168.328125 240.699219 167.519531 239.074219 168.03125 237.566406 C 174.746094 217.835938 164.214844 196.207031 144.5625 189.351562 C 143.070312 188.824219 142.285156 187.199219 142.796875 185.695312 C 143.320312 184.203125 144.945312 183.414062 146.445312 183.925781 C 151.992188 185.863281 156.988281 188.824219 161.316406 192.730469 C 165.488281 196.503906 168.878906 201.007812 171.347656 206.097656 C 173.828125 211.183594 175.28125 216.617188 175.675781 222.246094 " fill-opacity="1" fill-rule="nonzero"/></g><g clip-path="url(#2f6f4ea8c9)"><path fill="#1c3a4e" d="M 97.992188 170.382812 L 93.449219 161.078125 C 92.984375 160.148438 91.816406 159.742188 90.910156 160.195312 L 22.210938 193.792969 C 21.265625 194.261719 20.875 195.40625 21.328125 196.347656 L 25.871094 205.667969 Z M 149.582031 276.195312 L 100.5 175.542969 L 28.386719 210.828125 L 77.457031 311.476562 Z M 158.027344 297.875 C 158.96875 297.410156 159.363281 296.261719 158.910156 295.316406 L 152.085938 281.34375 L 79.964844 316.625 L 86.773438 330.585938 C 87.238281 331.53125 88.382812 331.925781 89.324219 331.472656 Z M 164.035156 292.796875 C 165.882812 296.582031 164.308594 301.167969 160.53125 303.023438 L 91.828125 336.621094 C 90.753906 337.144531 89.609375 337.394531 88.488281 337.394531 C 85.664062 337.394531 82.945312 335.820312 81.621094 333.109375 L 16.1875 198.871094 C 14.339844 195.082031 15.914062 190.5 19.695312 188.648438 L 88.394531 155.046875 C 90.230469 154.152344 92.292969 154.019531 94.226562 154.691406 C 96.15625 155.359375 97.707031 156.730469 98.601562 158.558594 L 164.035156 292.796875 " fill-opacity="1" fill-rule="nonzero"/></g><path fill="#1c3a4e" d="M 156.128906 213.539062 C 159.828125 221.132812 160.363281 229.710938 157.644531 237.6875 C 157.238281 238.894531 156.128906 239.644531 154.9375 239.644531 C 154.625 239.644531 154.316406 239.597656 154.019531 239.492188 C 152.527344 238.976562 151.71875 237.351562 152.230469 235.847656 C 156.820312 222.363281 149.617188 207.5625 136.179688 202.882812 C 134.6875 202.359375 133.902344 200.734375 134.414062 199.230469 C 134.9375 197.734375 136.558594 196.945312 138.0625 197.460938 C 146.015625 200.230469 152.433594 205.941406 156.128906 213.539062 " fill-opacity="1" fill-rule="nonzero"/><path fill="#1c3a4e" d="M 131.109375 301.371094 C 131.800781 302.792969 131.21875 304.515625 129.796875 305.207031 L 112.449219 313.6875 C 112.042969 313.890625 111.613281 313.988281 111.195312 313.988281 C 110.132812 313.988281 109.121094 313.390625 108.621094 312.375 C 107.925781 310.953125 108.511719 309.234375 109.929688 308.539062 L 127.28125 300.058594 C 128.703125 299.367188 130.417969 299.953125 131.109375 301.371094 " fill-opacity="1" fill-rule="nonzero"/><path fill="#1c3a4e" d="M 44.054688 288.796875 C 45.546875 289.320312 46.335938 290.945312 45.820312 292.449219 C 45.390625 293.621094 44.28125 294.363281 43.101562 294.363281 C 42.792969 294.363281 42.46875 294.3125 42.160156 294.207031 C 34.207031 291.433594 27.792969 285.726562 24.09375 278.128906 C 20.398438 270.535156 19.859375 261.957031 22.578125 253.980469 C 23.089844 252.484375 24.710938 251.675781 26.214844 252.1875 C 27.707031 252.699219 28.519531 254.328125 28.003906 255.832031 C 23.414062 269.316406 30.617188 284.113281 44.054688 288.796875 " fill-opacity="1" fill-rule="nonzero"/><g clip-path="url(#06f2f7b55e)"><path fill="#1c3a4e" d="M 35.671875 302.316406 C 37.164062 302.839844 37.949219 304.46875 37.4375 305.972656 C 37.007812 307.140625 35.910156 307.882812 34.71875 307.882812 C 34.410156 307.882812 34.085938 307.835938 33.777344 307.726562 C 28.230469 305.792969 23.234375 302.832031 18.90625 298.925781 C 14.730469 295.152344 11.347656 290.648438 8.875 285.558594 C 6.394531 280.46875 4.941406 275.035156 4.546875 269.410156 C 4.144531 263.582031 4.894531 257.8125 6.777344 252.25 C 7.292969 250.753906 8.914062 249.941406 10.414062 250.457031 C 11.90625 250.96875 12.71875 252.59375 12.203125 254.097656 C 5.488281 273.832031 16.019531 295.460938 35.671875 302.316406 " fill-opacity="1" fill-rule="nonzero"/></g></svg>