<svg xmlns="http://www.w3.org/2000/svg" xmlns:xlink="http://www.w3.org/1999/xlink" width="500" zoomAndPan="magnify" viewBox="0 0 375 149.999998" height="200" preserveAspectRatio="xMidYMid meet" version="1.0"><defs><g/><clipPath id="fea56bc072"><path d="M 193 21 L 232 21 L 232 66 L 193 66 Z M 193 21 " clip-rule="nonzero"/></clipPath><clipPath id="2dc6bd69a6"><path d="M 201.414062 16.996094 L 239.488281 25.449219 L 229.734375 69.378906 L 191.664062 60.929688 Z M 201.414062 16.996094 " clip-rule="nonzero"/></clipPath><clipPath id="360d763084"><path d="M 201.414062 16.996094 L 239.488281 25.449219 L 229.734375 69.378906 L 191.664062 60.929688 Z M 201.414062 16.996094 " clip-rule="nonzero"/></clipPath><clipPath id="fa0c56c1ad"><path d="M 226 27 L 232 27 L 232 41 L 226 41 Z M 226 27 " clip-rule="nonzero"/></clipPath><clipPath id="1af7014019"><path d="M 201.414062 16.996094 L 239.488281 25.449219 L 229.734375 69.378906 L 191.664062 60.929688 Z M 201.414062 16.996094 " clip-rule="nonzero"/></clipPath><clipPath id="755548033d"><path d="M 201.414062 16.996094 L 239.488281 25.449219 L 229.734375 69.378906 L 191.664062 60.929688 Z M 201.414062 16.996094 " clip-rule="nonzero"/></clipPath><clipPath id="530141defb"><path d="M 228 23 L 237 23 L 237 43 L 228 43 Z M 228 23 " clip-rule="nonzero"/></clipPath><clipPath id="a0990496c4"><path d="M 201.414062 16.996094 L 239.488281 25.449219 L 229.734375 69.378906 L 191.664062 60.929688 Z M 201.414062 16.996094 " clip-rule="nonzero"/></clipPath><clipPath id="1e64eefba7"><path d="M 201.414062 16.996094 L 239.488281 25.449219 L 229.734375 69.378906 L 191.664062 60.929688 Z M 201.414062 16.996094 " clip-rule="nonzero"/></clipPath><clipPath id="0f9fa64e30"><path d="M 202 24 L 212 24 L 212 35 L 202 35 Z M 202 24 " clip-rule="nonzero"/></clipPath><clipPath id="4fb572367f"><path d="M 201.414062 16.996094 L 239.488281 25.449219 L 229.734375 69.378906 L 191.664062 60.929688 Z M 201.414062 16.996094 " clip-rule="nonzero"/></clipPath><clipPath id="07d5b68e8c"><path d="M 201.414062 16.996094 L 239.488281 25.449219 L 229.734375 69.378906 L 191.664062 60.929688 Z M 201.414062 16.996094 " clip-rule="nonzero"/></clipPath><clipPath id="14e502d067"><path d="M 198 19 L 212 19 L 212 35 L 198 35 Z M 198 19 " clip-rule="nonzero"/></clipPath><clipPath id="faedd5ad05"><path d="M 201.414062 16.996094 L 239.488281 25.449219 L 229.734375 69.378906 L 191.664062 60.929688 Z M 201.414062 16.996094 " clip-rule="nonzero"/></clipPath><clipPath id="7576827577"><path d="M 201.414062 16.996094 L 239.488281 25.449219 L 229.734375 69.378906 L 191.664062 60.929688 Z M 201.414062 16.996094 " clip-rule="nonzero"/></clipPath><clipPath id="efdafced9e"><path d="M 207.722656 57.25 L 215.566406 57.25 L 215.566406 65.09375 L 207.722656 65.09375 Z M 207.722656 57.25 " clip-rule="nonzero"/></clipPath><clipPath id="b0dc725475"><path d="M 211.644531 57.25 C 209.476562 57.25 207.722656 59.007812 207.722656 61.171875 C 207.722656 63.335938 209.476562 65.09375 211.644531 65.09375 C 213.808594 65.09375 215.566406 63.335938 215.566406 61.171875 C 215.566406 59.007812 213.808594 57.25 211.644531 57.25 Z M 211.644531 57.25 " clip-rule="nonzero"/></clipPath></defs><g fill="#ffffff" fill-opacity="1"><g transform="translate(10.294288, 105.03946)"><g><path d="M 50.984375 -42.4375 L 50.984375 0 L 46.6875 0 L 46.6875 -33.953125 L 30.015625 -5.390625 L 27.890625 -5.390625 L 11.21875 -33.765625 L 11.21875 0 L 6.90625 0 L 6.90625 -42.4375 L 10.609375 -42.4375 L 29.046875 -10.96875 L 47.28125 -42.4375 Z M 50.984375 -42.4375 "/></g></g></g><g fill="#ffffff" fill-opacity="1"><g transform="translate(68.180726, 105.03946)"><g><path d="M 33.765625 -14.609375 L 7.09375 -14.609375 C 7.332031 -11.296875 8.601562 -8.617188 10.90625 -6.578125 C 13.21875 -4.535156 16.128906 -3.515625 19.640625 -3.515625 C 21.617188 -3.515625 23.4375 -3.867188 25.09375 -4.578125 C 26.75 -5.285156 28.1875 -6.328125 29.40625 -7.703125 L 31.828125 -4.90625 C 30.410156 -3.207031 28.640625 -1.914062 26.515625 -1.03125 C 24.398438 -0.144531 22.066406 0.296875 19.515625 0.296875 C 16.242188 0.296875 13.34375 -0.394531 10.8125 -1.78125 C 8.289062 -3.175781 6.320312 -5.109375 4.90625 -7.578125 C 3.488281 -10.046875 2.78125 -12.832031 2.78125 -15.9375 C 2.78125 -19.050781 3.457031 -21.84375 4.8125 -24.3125 C 6.164062 -26.78125 8.023438 -28.695312 10.390625 -30.0625 C 12.753906 -31.4375 15.414062 -32.125 18.375 -32.125 C 21.320312 -32.125 23.96875 -31.4375 26.3125 -30.0625 C 28.65625 -28.695312 30.492188 -26.789062 31.828125 -24.34375 C 33.160156 -21.894531 33.828125 -19.09375 33.828125 -15.9375 Z M 18.375 -28.4375 C 15.300781 -28.4375 12.722656 -27.453125 10.640625 -25.484375 C 8.554688 -23.523438 7.375 -20.972656 7.09375 -17.828125 L 29.703125 -17.828125 C 29.421875 -20.972656 28.238281 -23.523438 26.15625 -25.484375 C 24.070312 -27.453125 21.476562 -28.4375 18.375 -28.4375 Z M 18.375 -28.4375 "/></g></g></g><g fill="#ffffff" fill-opacity="1"><g transform="translate(104.791621, 105.03946)"><g><path d="M 35.109375 -44.984375 L 35.109375 0 L 30.984375 0 L 30.984375 -6.3125 C 29.691406 -4.164062 27.984375 -2.523438 25.859375 -1.390625 C 23.734375 -0.265625 21.335938 0.296875 18.671875 0.296875 C 15.679688 0.296875 12.972656 -0.382812 10.546875 -1.75 C 8.117188 -3.125 6.21875 -5.046875 4.84375 -7.515625 C 3.46875 -9.984375 2.78125 -12.789062 2.78125 -15.9375 C 2.78125 -19.09375 3.46875 -21.898438 4.84375 -24.359375 C 6.21875 -26.828125 8.117188 -28.738281 10.546875 -30.09375 C 12.972656 -31.445312 15.679688 -32.125 18.671875 -32.125 C 21.253906 -32.125 23.585938 -31.585938 25.671875 -30.515625 C 27.753906 -29.453125 29.460938 -27.890625 30.796875 -25.828125 L 30.796875 -44.984375 Z M 19.03125 -3.515625 C 21.257812 -3.515625 23.269531 -4.03125 25.0625 -5.0625 C 26.863281 -6.09375 28.28125 -7.554688 29.3125 -9.453125 C 30.34375 -11.359375 30.859375 -13.519531 30.859375 -15.9375 C 30.859375 -18.363281 30.34375 -20.523438 29.3125 -22.421875 C 28.28125 -24.328125 26.863281 -25.796875 25.0625 -26.828125 C 23.269531 -27.859375 21.257812 -28.375 19.03125 -28.375 C 16.769531 -28.375 14.738281 -27.859375 12.9375 -26.828125 C 11.144531 -25.796875 9.734375 -24.328125 8.703125 -22.421875 C 7.671875 -20.523438 7.15625 -18.363281 7.15625 -15.9375 C 7.15625 -13.519531 7.671875 -11.359375 8.703125 -9.453125 C 9.734375 -7.554688 11.144531 -6.09375 12.9375 -5.0625 C 14.738281 -4.03125 16.769531 -3.515625 19.03125 -3.515625 Z M 19.03125 -3.515625 "/></g></g></g><g fill="#ffffff" fill-opacity="1"><g transform="translate(145.887959, 105.03946)"><g><path d="M 50.984375 -42.4375 L 50.984375 0 L 46.6875 0 L 46.6875 -33.953125 L 30.015625 -5.390625 L 27.890625 -5.390625 L 11.21875 -33.765625 L 11.21875 0 L 6.90625 0 L 6.90625 -42.4375 L 10.609375 -42.4375 L 29.046875 -10.96875 L 47.28125 -42.4375 Z M 50.984375 -42.4375 "/></g></g></g><g fill="#ffffff" fill-opacity="1"><g transform="translate(203.774397, 105.03946)"><g><path d="M 6 -31.890625 L 10.3125 -31.890625 L 10.3125 0 L 6 0 Z M 8.1875 -38.859375 C 7.300781 -38.859375 6.550781 -39.160156 5.9375 -39.765625 C 5.332031 -40.367188 5.03125 -41.097656 5.03125 -41.953125 C 5.03125 -42.765625 5.332031 -43.472656 5.9375 -44.078125 C 6.550781 -44.679688 7.300781 -44.984375 8.1875 -44.984375 C 9.070312 -44.984375 9.816406 -44.6875 10.421875 -44.09375 C 11.035156 -43.507812 11.34375 -42.816406 11.34375 -42.015625 C 11.34375 -41.117188 11.035156 -40.367188 10.421875 -39.765625 C 9.816406 -39.160156 9.070312 -38.859375 8.1875 -38.859375 Z M 8.1875 -38.859375 "/></g></g></g><g fill="#ffffff" fill-opacity="1"><g transform="translate(220.079581, 105.03946)"><g><path d="M 22.25 -32.125 C 26.25 -32.125 29.429688 -30.960938 31.796875 -28.640625 C 34.160156 -26.316406 35.34375 -22.929688 35.34375 -18.484375 L 35.34375 0 L 31.046875 0 L 31.046875 -18.0625 C 31.046875 -21.375 30.210938 -23.898438 28.546875 -25.640625 C 26.890625 -27.378906 24.53125 -28.25 21.46875 -28.25 C 18.03125 -28.25 15.3125 -27.226562 13.3125 -25.1875 C 11.3125 -23.144531 10.3125 -20.328125 10.3125 -16.734375 L 10.3125 0 L 6 0 L 6 -31.890625 L 10.125 -31.890625 L 10.125 -26.015625 C 11.289062 -27.953125 12.914062 -29.453125 15 -30.515625 C 17.082031 -31.585938 19.5 -32.125 22.25 -32.125 Z M 22.25 -32.125 "/></g></g></g><g fill="#ffffff" fill-opacity="1"><g transform="translate(261.115306, 105.03946)"><g><path d="M 35.109375 -44.984375 L 35.109375 0 L 30.984375 0 L 30.984375 -6.3125 C 29.691406 -4.164062 27.984375 -2.523438 25.859375 -1.390625 C 23.734375 -0.265625 21.335938 0.296875 18.671875 0.296875 C 15.679688 0.296875 12.972656 -0.382812 10.546875 -1.75 C 8.117188 -3.125 6.21875 -5.046875 4.84375 -7.515625 C 3.46875 -9.984375 2.78125 -12.789062 2.78125 -15.9375 C 2.78125 -19.09375 3.46875 -21.898438 4.84375 -24.359375 C 6.21875 -26.828125 8.117188 -28.738281 10.546875 -30.09375 C 12.972656 -31.445312 15.679688 -32.125 18.671875 -32.125 C 21.253906 -32.125 23.585938 -31.585938 25.671875 -30.515625 C 27.753906 -29.453125 29.460938 -27.890625 30.796875 -25.828125 L 30.796875 -44.984375 Z M 19.03125 -3.515625 C 21.257812 -3.515625 23.269531 -4.03125 25.0625 -5.0625 C 26.863281 -6.09375 28.28125 -7.554688 29.3125 -9.453125 C 30.34375 -11.359375 30.859375 -13.519531 30.859375 -15.9375 C 30.859375 -18.363281 30.34375 -20.523438 29.3125 -22.421875 C 28.28125 -24.328125 26.863281 -25.796875 25.0625 -26.828125 C 23.269531 -27.859375 21.257812 -28.375 19.03125 -28.375 C 16.769531 -28.375 14.738281 -27.859375 12.9375 -26.828125 C 11.144531 -25.796875 9.734375 -24.328125 8.703125 -22.421875 C 7.671875 -20.523438 7.15625 -18.363281 7.15625 -15.9375 C 7.15625 -13.519531 7.671875 -11.359375 8.703125 -9.453125 C 9.734375 -7.554688 11.144531 -6.09375 12.9375 -5.0625 C 14.738281 -4.03125 16.769531 -3.515625 19.03125 -3.515625 Z M 19.03125 -3.515625 "/></g></g></g><g fill="#ffffff" fill-opacity="1"><g transform="translate(302.211633, 105.03946)"><g><path d="M 33.765625 -14.609375 L 7.09375 -14.609375 C 7.332031 -11.296875 8.601562 -8.617188 10.90625 -6.578125 C 13.21875 -4.535156 16.128906 -3.515625 19.640625 -3.515625 C 21.617188 -3.515625 23.4375 -3.867188 25.09375 -4.578125 C 26.75 -5.285156 28.1875 -6.328125 29.40625 -7.703125 L 31.828125 -4.90625 C 30.410156 -3.207031 28.640625 -1.914062 26.515625 -1.03125 C 24.398438 -0.144531 22.066406 0.296875 19.515625 0.296875 C 16.242188 0.296875 13.34375 -0.394531 10.8125 -1.78125 C 8.289062 -3.175781 6.320312 -5.109375 4.90625 -7.578125 C 3.488281 -10.046875 2.78125 -12.832031 2.78125 -15.9375 C 2.78125 -19.050781 3.457031 -21.84375 4.8125 -24.3125 C 6.164062 -26.78125 8.023438 -28.695312 10.390625 -30.0625 C 12.753906 -31.4375 15.414062 -32.125 18.375 -32.125 C 21.320312 -32.125 23.96875 -31.4375 26.3125 -30.0625 C 28.65625 -28.695312 30.492188 -26.789062 31.828125 -24.34375 C 33.160156 -21.894531 33.828125 -19.09375 33.828125 -15.9375 Z M 18.375 -28.4375 C 15.300781 -28.4375 12.722656 -27.453125 10.640625 -25.484375 C 8.554688 -23.523438 7.375 -20.972656 7.09375 -17.828125 L 29.703125 -17.828125 C 29.421875 -20.972656 28.238281 -23.523438 26.15625 -25.484375 C 24.070312 -27.453125 21.476562 -28.4375 18.375 -28.4375 Z M 18.375 -28.4375 "/></g></g></g><g fill="#ffffff" fill-opacity="1"><g transform="translate(338.822538, 105.03946)"><g><path d="M 10.125 -25.640625 C 11.132812 -27.785156 12.640625 -29.398438 14.640625 -30.484375 C 16.640625 -31.578125 19.113281 -32.125 22.0625 -32.125 L 22.0625 -27.953125 L 21.03125 -28.015625 C 17.675781 -28.015625 15.050781 -26.984375 13.15625 -24.921875 C 11.257812 -22.859375 10.3125 -19.96875 10.3125 -16.25 L 10.3125 0 L 6 0 L 6 -31.890625 L 10.125 -31.890625 Z M 10.125 -25.640625 "/></g></g></g><g clip-path="url(#fea56bc072)"><g clip-path="url(#2dc6bd69a6)"><g clip-path="url(#360d763084)"><path fill="#ffffff" d="M 228.6875 57.5625 L 227.757812 57.355469 C 225.871094 54.222656 225.265625 50.546875 226.0625 46.960938 L 227.675781 39.695312 C 228.617188 35.449219 226.96875 31.226562 223.789062 28.675781 L 224.128906 27.140625 C 224.707031 24.527344 223.054688 21.925781 220.4375 21.347656 C 217.824219 20.765625 215.222656 22.421875 214.640625 25.035156 L 214.300781 26.570312 C 210.339844 27.535156 207.058594 30.664062 206.117188 34.90625 L 204.503906 42.175781 C 203.707031 45.761719 201.605469 48.835938 198.570312 50.878906 L 197.640625 50.671875 C 195.976562 50.300781 194.320312 51.355469 193.953125 53.019531 C 193.582031 54.683594 194.636719 56.339844 196.300781 56.707031 L 207.082031 59.101562 L 206.984375 59.53125 C 206.40625 62.148438 208.058594 64.746094 210.675781 65.328125 C 213.289062 65.910156 215.890625 64.253906 216.472656 61.636719 L 216.566406 61.207031 L 227.347656 63.597656 C 229.011719 63.96875 230.664062 62.914062 231.035156 61.25 C 231.40625 59.585938 230.351562 57.933594 228.6875 57.5625 Z M 216.367188 25.417969 C 216.734375 23.753906 218.390625 22.703125 220.054688 23.070312 C 221.71875 23.441406 222.773438 25.09375 222.402344 26.757812 L 222.210938 27.621094 C 220.375 26.609375 218.269531 26.144531 216.175781 26.28125 Z M 206.226562 42.558594 L 207.839844 35.289062 C 208.949219 30.296875 213.914062 27.136719 218.90625 28.246094 C 223.898438 29.355469 227.058594 34.316406 225.953125 39.3125 L 224.339844 46.578125 C 223.5625 50.082031 223.96875 53.660156 225.484375 56.851562 L 200.84375 51.382812 C 203.566406 49.132812 205.449219 46.0625 206.226562 42.558594 Z M 214.746094 61.253906 C 214.378906 62.917969 212.722656 63.972656 211.058594 63.601562 C 209.394531 63.234375 208.339844 61.578125 208.710938 59.914062 L 208.804688 59.484375 L 214.84375 60.824219 Z M 214.746094 61.253906 " fill-opacity="1" fill-rule="nonzero"/></g></g></g><g clip-path="url(#fa0c56c1ad)"><g clip-path="url(#1af7014019)"><g clip-path="url(#755548033d)"><path fill="#ffffff" d="M 227.074219 29.308594 C 229.824219 31.734375 230.902344 35.589844 229.820312 39.128906 C 229.679688 39.59375 229.941406 40.089844 230.410156 40.230469 C 230.875 40.375 231.371094 40.109375 231.511719 39.644531 C 232.792969 35.445312 231.507812 30.867188 228.242188 27.984375 C 227.878906 27.660156 227.320312 27.695312 226.996094 28.0625 C 226.675781 28.425781 226.707031 28.984375 227.074219 29.308594 Z M 227.074219 29.308594 " fill-opacity="1" fill-rule="nonzero"/></g></g></g><g clip-path="url(#530141defb)"><g clip-path="url(#a0990496c4)"><g clip-path="url(#1e64eefba7)"><path fill="#ffffff" d="M 228.960938 24.933594 C 233.566406 29 235.371094 35.453125 233.5625 41.382812 C 233.421875 41.847656 233.683594 42.34375 234.152344 42.484375 C 234.613281 42.625 235.109375 42.367188 235.253906 41.898438 C 237.261719 35.308594 235.25 28.132812 230.128906 23.609375 C 229.765625 23.289062 229.207031 23.324219 228.882812 23.6875 C 228.558594 24.054688 228.59375 24.613281 228.960938 24.933594 Z M 228.960938 24.933594 " fill-opacity="1" fill-rule="nonzero"/></g></g></g><g clip-path="url(#0f9fa64e30)"><g clip-path="url(#4fb572367f)"><g clip-path="url(#07d5b68e8c)"><path fill="#ffffff" d="M 202.640625 33.234375 C 202.574219 33.695312 202.878906 34.125 203.324219 34.222656 C 203.828125 34.335938 204.320312 33.992188 204.390625 33.484375 C 204.910156 29.820312 207.519531 26.785156 211.035156 25.75 C 211.503906 25.609375 211.769531 25.121094 211.632812 24.652344 C 211.496094 24.183594 211.003906 23.914062 210.535156 24.054688 C 206.355469 25.285156 203.257812 28.886719 202.640625 33.234375 Z M 202.640625 33.234375 " fill-opacity="1" fill-rule="nonzero"/></g></g></g><g clip-path="url(#14e502d067)"><g clip-path="url(#faedd5ad05)"><g clip-path="url(#7576827577)"><path fill="#ffffff" d="M 199.046875 34.695312 C 199.53125 34.761719 199.976562 34.425781 200.046875 33.941406 C 200.917969 27.808594 205.285156 22.722656 211.175781 20.988281 C 211.644531 20.851562 211.910156 20.359375 211.773438 19.890625 C 211.636719 19.421875 211.144531 19.15625 210.675781 19.292969 C 204.125 21.222656 199.265625 26.875 198.296875 33.695312 C 198.230469 34.179688 198.566406 34.625 199.046875 34.695312 Z M 199.046875 34.695312 " fill-opacity="1" fill-rule="nonzero"/></g></g></g><g clip-path="url(#efdafced9e)"><g clip-path="url(#b0dc725475)"><path fill="#ffffff" d="M 207.722656 57.25 L 215.566406 57.25 L 215.566406 65.09375 L 207.722656 65.09375 Z M 207.722656 57.25 " fill-opacity="1" fill-rule="nonzero"/></g></g></svg>