<svg xmlns="http://www.w3.org/2000/svg" xmlns:xlink="http://www.w3.org/1999/xlink" width="500" zoomAndPan="magnify" viewBox="0 0 375 374.999991" height="500" preserveAspectRatio="xMidYMid meet" version="1.0"><defs><clipPath id="17e8c1ee9d"><path d="M 92 4.617188 L 273 4.617188 L 273 370.617188 L 92 370.617188 Z M 92 4.617188 " clip-rule="nonzero"/></clipPath><clipPath id="e406efd3f4"><path d="M 100 10 L 283.195312 10 L 283.195312 370.617188 L 100 370.617188 Z M 100 10 " clip-rule="nonzero"/></clipPath></defs><g clip-path="url(#17e8c1ee9d)"><path fill="#43b7bf" d="M 271.535156 342.289062 L 271.535156 325.746094 L 92.035156 325.746094 L 92.035156 343.53125 C 92.035156 358.390625 104.113281 370.46875 118.972656 370.46875 L 243.28125 370.46875 C 258.871094 370.46875 271.539062 357.878906 271.539062 342.289062 Z M 245.035156 4.617188 L 124.246094 4.617188 C 107.039062 4.617188 93.058594 18.597656 93.058594 35.800781 L 93.058594 45.316406 L 272.558594 45.316406 L 272.558594 32.140625 C 272.558594 16.914062 260.1875 4.617188 245.035156 4.617188 Z M 271.535156 317.546875 L 93.058594 317.546875 L 93.058594 52.488281 L 271.460938 52.488281 L 271.460938 317.546875 L 271.535156 317.546875 " fill-opacity="1" fill-rule="nonzero"/></g><path fill="#ffffff" d="M 191.667969 335.042969 C 186.105469 335.042969 181.566406 339.507812 181.566406 344.921875 C 181.566406 350.339844 186.105469 354.804688 191.667969 354.804688 C 197.230469 354.804688 201.769531 350.339844 201.769531 344.921875 C 201.769531 339.507812 197.230469 335.042969 191.667969 335.042969 Z M 223.511719 28.480469 L 223.511719 25.988281 C 223.511719 25.402344 223.074219 24.964844 222.488281 24.964844 L 163.777344 24.964844 C 163.191406 24.964844 162.753906 25.402344 162.753906 25.988281 L 162.753906 28.480469 C 162.753906 29.0625 163.191406 29.503906 163.777344 29.503906 L 222.488281 29.503906 C 223 29.503906 223.511719 29.0625 223.511719 28.480469 Z M 265.828125 308.761719 L 100.523438 308.761719 L 100.527344 58.929688 L 265.828125 58.929688 L 265.828125 308.761719 " fill-opacity="1" fill-rule="nonzero"/><g clip-path="url(#e406efd3f4)"><path fill="#0f0e0c" d="M 133.980469 13.253906 C 117.214844 13.253906 103.601562 26.867188 103.601562 43.632812 L 103.601562 337.019531 C 103.601562 353.78125 117.214844 367.398438 133.980469 367.398438 L 249.429688 367.398438 C 266.195312 367.398438 279.808594 353.78125 279.808594 337.019531 L 279.808594 43.632812 C 279.808594 26.867188 266.191406 13.253906 249.429688 13.253906 Z M 249.429688 370.617188 L 133.980469 370.617188 C 115.460938 370.617188 100.378906 355.539062 100.378906 337.019531 L 100.378906 43.632812 C 100.378906 25.113281 115.460938 10.03125 133.980469 10.03125 L 249.429688 10.03125 C 268.023438 10.03125 283.105469 25.113281 283.105469 43.632812 L 283.105469 337.019531 C 283.105469 355.539062 268.023438 370.617188 249.429688 370.617188 " fill-opacity="1" fill-rule="nonzero"/></g></svg>