<svg xmlns="http://www.w3.org/2000/svg" xmlns:xlink="http://www.w3.org/1999/xlink" width="500" zoomAndPan="magnify" viewBox="0 0 375 374.999991" height="500" preserveAspectRatio="xMidYMid meet" version="1.0"><defs><filter x="0%" y="0%" width="100%" height="100%" id="878c1dd46b"><feColorMatrix values="0 0 0 0 1 0 0 0 0 1 0 0 0 0 1 0 0 0 1 0" color-interpolation-filters="sRGB"/></filter><mask id="554b2805e1"><g filter="url(#878c1dd46b)"><rect x="-37.5" width="450" fill="#000000" y="-37.499999" height="449.999989" fill-opacity="0.1"/></g></mask><clipPath id="088da4a177"><path d="M 2 0.160156 L 274.960938 0.160156 L 274.960938 116.558594 L 2 116.558594 Z M 2 0.160156 " clip-rule="nonzero"/></clipPath><clipPath id="128978c95f"><rect x="0" width="275" y="0" height="117"/></clipPath><mask id="77d50d1973"><g filter="url(#878c1dd46b)"><rect x="-37.5" width="450" fill="#000000" y="-37.499999" height="449.999989" fill-opacity="0.1"/></g></mask><clipPath id="59498877fe"><path d="M 2 0.71875 L 274.960938 0.71875 L 274.960938 70.558594 L 2 70.558594 Z M 2 0.71875 " clip-rule="nonzero"/></clipPath><clipPath id="b160e3ab1f"><rect x="0" width="275" y="0" height="71"/></clipPath><mask id="783cec270a"><g filter="url(#878c1dd46b)"><rect x="-37.5" width="450" fill="#000000" y="-37.499999" height="449.999989" fill-opacity="0.1"/></g></mask><clipPath id="e50c47fb01"><path d="M 0.160156 0.238281 L 247 0.238281 L 247 202.558594 L 0.160156 202.558594 Z M 0.160156 0.238281 " clip-rule="nonzero"/></clipPath><clipPath id="f2bf1ca959"><rect x="0" width="250" y="0" height="203"/></clipPath><mask id="261217f877"><g filter="url(#878c1dd46b)"><rect x="-37.5" width="450" fill="#000000" y="-37.499999" height="449.999989" fill-opacity="0.1"/></g></mask><clipPath id="3eda704b43"><path d="M 2 1 L 245 1 L 245 186.558594 L 2 186.558594 Z M 2 1 " clip-rule="nonzero"/></clipPath><clipPath id="a11d8c5ba5"><rect x="0" width="248" y="0" height="187"/></clipPath></defs><path fill="#f5f5f5" d="M 372.679688 216.433594 C 372.679688 218.332031 372.585938 220.222656 372.402344 222.109375 C 372.214844 224 371.9375 225.871094 371.566406 227.730469 C 371.199219 229.59375 370.738281 231.429688 370.1875 233.242188 C 369.636719 235.058594 368.996094 236.84375 368.273438 238.59375 C 367.546875 240.347656 366.738281 242.058594 365.84375 243.730469 C 364.949219 245.402344 363.976562 247.027344 362.921875 248.605469 C 361.867188 250.183594 360.738281 251.703125 359.535156 253.167969 C 358.332031 254.636719 357.0625 256.039062 355.71875 257.378906 C 354.378906 258.722656 352.976562 259.992188 351.507812 261.195312 C 350.042969 262.398438 348.523438 263.527344 346.945312 264.582031 C 345.367188 265.636719 343.742188 266.609375 342.070312 267.503906 C 340.398438 268.398438 338.6875 269.207031 336.933594 269.933594 C 335.183594 270.660156 333.398438 271.296875 331.582031 271.847656 C 329.769531 272.398438 327.929688 272.859375 326.070312 273.226562 C 324.210938 273.597656 322.335938 273.875 320.449219 274.0625 C 318.5625 274.246094 316.671875 274.339844 314.773438 274.339844 L 158.542969 274.339844 C 156.648438 274.339844 154.753906 274.246094 152.867188 274.0625 C 150.980469 273.875 149.105469 273.597656 147.246094 273.226562 C 145.386719 272.859375 143.550781 272.398438 141.734375 271.847656 C 139.921875 271.296875 138.136719 270.660156 136.382812 269.933594 C 134.632812 269.207031 132.921875 268.398438 131.246094 267.503906 C 129.574219 266.609375 127.949219 265.636719 126.375 264.582031 C 124.796875 263.527344 123.277344 262.398438 121.808594 261.195312 C 120.34375 259.992188 118.941406 258.722656 117.597656 257.378906 C 116.257812 256.039062 114.984375 254.636719 113.785156 253.167969 C 112.582031 251.703125 111.453125 250.183594 110.398438 248.605469 C 109.34375 247.027344 108.371094 245.402344 107.476562 243.730469 C 106.582031 242.058594 105.773438 240.347656 105.046875 238.59375 C 104.320312 236.84375 103.683594 235.058594 103.132812 233.242188 C 102.582031 231.429688 102.121094 229.589844 101.753906 227.730469 C 101.382812 225.871094 101.105469 223.996094 100.917969 222.109375 C 100.734375 220.222656 100.640625 218.332031 100.640625 216.433594 C 100.640625 214.539062 100.734375 212.648438 100.917969 210.757812 C 101.105469 208.871094 101.382812 207 101.753906 205.136719 C 102.121094 203.277344 102.582031 201.441406 103.132812 199.625 C 103.683594 197.8125 104.320312 196.027344 105.046875 194.273438 C 105.773438 192.523438 106.582031 190.8125 107.476562 189.136719 C 108.371094 187.464844 109.34375 185.839844 110.398438 184.265625 C 111.449219 182.6875 112.578125 181.164062 113.78125 179.699219 C 114.984375 178.234375 116.257812 176.832031 117.597656 175.488281 C 118.941406 174.148438 120.34375 172.875 121.808594 171.671875 C 123.273438 170.46875 124.796875 169.339844 126.375 168.289062 C 127.949219 167.234375 129.574219 166.261719 131.246094 165.367188 C 132.917969 164.472656 134.632812 163.664062 136.382812 162.9375 C 138.136719 162.210938 139.917969 161.574219 141.734375 161.023438 C 143.550781 160.472656 145.386719 160.011719 147.246094 159.640625 C 149.105469 159.273438 150.980469 158.992188 152.867188 158.808594 C 154.753906 158.621094 156.648438 158.53125 158.542969 158.53125 L 314.773438 158.53125 C 316.671875 158.53125 318.5625 158.621094 320.449219 158.808594 C 322.335938 158.992188 324.210938 159.273438 326.070312 159.640625 C 327.929688 160.011719 329.769531 160.472656 331.582031 161.023438 C 333.398438 161.574219 335.183594 162.210938 336.933594 162.9375 C 338.6875 163.664062 340.398438 164.472656 342.070312 165.367188 C 343.742188 166.261719 345.367188 167.234375 346.945312 168.289062 C 348.523438 169.339844 350.042969 170.46875 351.511719 171.671875 C 352.976562 172.875 354.378906 174.148438 355.71875 175.488281 C 357.0625 176.828125 358.332031 178.234375 359.535156 179.699219 C 360.738281 181.164062 361.867188 182.6875 362.921875 184.265625 C 363.976562 185.839844 364.949219 187.464844 365.84375 189.136719 C 366.738281 190.8125 367.546875 192.523438 368.273438 194.273438 C 369 196.027344 369.636719 197.8125 370.1875 199.625 C 370.738281 201.441406 371.199219 203.277344 371.566406 205.136719 C 371.9375 207 372.214844 208.871094 372.402344 210.757812 C 372.585938 212.648438 372.679688 214.539062 372.679688 216.433594 Z M 372.679688 216.433594 " fill-opacity="1" fill-rule="nonzero"/><g mask="url(#554b2805e1)"><g transform="matrix(1, 0, 0, 1, 98, 158)"><g clip-path="url(#128978c95f)"><g clip-path="url(#088da4a177)"><path fill="#191919" d="M 274.679688 58.433594 C 274.679688 60.332031 274.585938 62.222656 274.402344 64.109375 C 274.214844 66 273.9375 67.871094 273.566406 69.730469 C 273.199219 71.59375 272.738281 73.429688 272.1875 75.242188 C 271.636719 77.058594 270.996094 78.84375 270.273438 80.59375 C 269.546875 82.347656 268.738281 84.058594 267.84375 85.730469 C 266.949219 87.402344 265.976562 89.027344 264.921875 90.605469 C 263.867188 92.183594 262.738281 93.703125 261.535156 95.167969 C 260.332031 96.636719 259.0625 98.039062 257.71875 99.378906 C 256.378906 100.722656 254.976562 101.992188 253.507812 103.195312 C 252.042969 104.398438 250.523438 105.527344 248.945312 106.582031 C 247.367188 107.636719 245.742188 108.609375 244.070312 109.503906 C 242.398438 110.398438 240.6875 111.207031 238.933594 111.933594 C 237.183594 112.660156 235.398438 113.296875 233.582031 113.847656 C 231.769531 114.398438 229.929688 114.859375 228.070312 115.226562 C 226.210938 115.597656 224.335938 115.875 222.449219 116.0625 C 220.5625 116.246094 218.671875 116.339844 216.773438 116.339844 L 60.542969 116.339844 C 58.648438 116.339844 56.753906 116.246094 54.867188 116.0625 C 52.980469 115.875 51.105469 115.597656 49.246094 115.226562 C 47.386719 114.859375 45.550781 114.398438 43.734375 113.847656 C 41.921875 113.296875 40.136719 112.660156 38.382812 111.933594 C 36.632812 111.207031 34.921875 110.398438 33.246094 109.503906 C 31.574219 108.609375 29.949219 107.636719 28.375 106.582031 C 26.796875 105.527344 25.277344 104.398438 23.808594 103.195312 C 22.34375 101.992188 20.941406 100.722656 19.597656 99.378906 C 18.257812 98.039062 16.984375 96.636719 15.785156 95.167969 C 14.582031 93.703125 13.453125 92.183594 12.398438 90.605469 C 11.34375 89.027344 10.371094 87.402344 9.476562 85.730469 C 8.582031 84.058594 7.773438 82.347656 7.046875 80.59375 C 6.320312 78.84375 5.683594 77.058594 5.132812 75.242188 C 4.582031 73.429688 4.121094 71.589844 3.753906 69.730469 C 3.382812 67.871094 3.105469 65.996094 2.917969 64.109375 C 2.734375 62.222656 2.640625 60.332031 2.640625 58.433594 C 2.640625 56.539062 2.734375 54.648438 2.917969 52.757812 C 3.105469 50.871094 3.382812 49 3.753906 47.136719 C 4.121094 45.277344 4.582031 43.441406 5.132812 41.625 C 5.683594 39.8125 6.320312 38.027344 7.046875 36.273438 C 7.773438 34.523438 8.582031 32.8125 9.476562 31.136719 C 10.371094 29.464844 11.34375 27.839844 12.398438 26.265625 C 13.449219 24.6875 14.578125 23.164062 15.78125 21.699219 C 16.984375 20.234375 18.257812 18.832031 19.597656 17.488281 C 20.941406 16.148438 22.34375 14.875 23.808594 13.671875 C 25.273438 12.46875 26.796875 11.339844 28.375 10.289062 C 29.949219 9.234375 31.574219 8.261719 33.246094 7.367188 C 34.917969 6.472656 36.632812 5.664062 38.382812 4.9375 C 40.136719 4.210938 41.917969 3.574219 43.734375 3.023438 C 45.550781 2.472656 47.386719 2.011719 49.246094 1.640625 C 51.105469 1.273438 52.980469 0.992188 54.867188 0.808594 C 56.753906 0.621094 58.648438 0.53125 60.542969 0.53125 L 216.773438 0.53125 C 218.671875 0.53125 220.5625 0.621094 222.449219 0.808594 C 224.335938 0.992188 226.210938 1.273438 228.070312 1.640625 C 229.929688 2.011719 231.769531 2.472656 233.582031 3.023438 C 235.398438 3.574219 237.183594 4.210938 238.933594 4.9375 C 240.6875 5.664062 242.398438 6.472656 244.070312 7.367188 C 245.742188 8.261719 247.367188 9.234375 248.945312 10.289062 C 250.523438 11.339844 252.042969 12.46875 253.511719 13.671875 C 254.976562 14.875 256.378906 16.148438 257.71875 17.488281 C 259.0625 18.828125 260.332031 20.234375 261.535156 21.699219 C 262.738281 23.164062 263.867188 24.6875 264.921875 26.265625 C 265.976562 27.839844 266.949219 29.464844 267.84375 31.136719 C 268.738281 32.8125 269.546875 34.523438 270.273438 36.273438 C 271 38.027344 271.636719 39.8125 272.1875 41.625 C 272.738281 43.441406 273.199219 45.277344 273.566406 47.136719 C 273.9375 49 274.214844 50.871094 274.402344 52.757812 C 274.585938 54.648438 274.679688 56.539062 274.679688 58.433594 Z M 274.679688 58.433594 " fill-opacity="1" fill-rule="nonzero"/></g></g></g></g><path fill="#132540" d="M 236.660156 158.53125 L 314.773438 158.53125 C 316.671875 158.53125 318.5625 158.621094 320.449219 158.808594 C 322.335938 158.992188 324.210938 159.273438 326.070312 159.640625 C 327.929688 160.011719 329.769531 160.472656 331.582031 161.023438 C 333.398438 161.574219 335.183594 162.210938 336.933594 162.9375 C 338.6875 163.664062 340.398438 164.472656 342.070312 165.367188 C 343.742188 166.261719 345.367188 167.234375 346.945312 168.289062 C 348.523438 169.339844 350.042969 170.46875 351.511719 171.671875 C 352.976562 172.875 354.378906 174.148438 355.71875 175.488281 C 357.0625 176.828125 358.332031 178.234375 359.535156 179.699219 C 360.738281 181.164062 361.867188 182.6875 362.921875 184.265625 C 363.976562 185.839844 364.949219 187.464844 365.84375 189.136719 C 366.738281 190.8125 367.546875 192.523438 368.273438 194.273438 C 369 196.027344 369.636719 197.8125 370.1875 199.625 C 370.738281 201.441406 371.199219 203.277344 371.566406 205.136719 C 371.9375 207 372.214844 208.871094 372.402344 210.757812 C 372.585938 212.648438 372.679688 214.539062 372.679688 216.433594 C 372.679688 218.332031 372.585938 220.222656 372.402344 222.109375 C 372.214844 224 371.9375 225.871094 371.566406 227.730469 C 371.199219 229.59375 370.738281 231.429688 370.1875 233.242188 C 369.636719 235.058594 368.996094 236.84375 368.273438 238.59375 C 367.546875 240.347656 366.738281 242.058594 365.84375 243.730469 C 364.949219 245.402344 363.976562 247.027344 362.921875 248.605469 C 361.867188 250.183594 360.738281 251.703125 359.535156 253.167969 C 358.332031 254.636719 357.0625 256.039062 355.71875 257.378906 C 354.378906 258.722656 352.976562 259.992188 351.507812 261.195312 C 350.042969 262.398438 348.523438 263.527344 346.945312 264.582031 C 345.367188 265.636719 343.742188 266.609375 342.070312 267.503906 C 340.398438 268.398438 338.6875 269.207031 336.933594 269.933594 C 335.183594 270.660156 333.398438 271.296875 331.582031 271.847656 C 329.769531 272.398438 327.929688 272.859375 326.070312 273.226562 C 324.210938 273.597656 322.335938 273.875 320.449219 274.0625 C 318.5625 274.246094 316.671875 274.339844 314.773438 274.339844 L 236.660156 274.339844 Z M 236.660156 158.53125 " fill-opacity="1" fill-rule="nonzero"/><g mask="url(#77d50d1973)"><g transform="matrix(1, 0, 0, 1, 98, 204)"><g clip-path="url(#b160e3ab1f)"><g clip-path="url(#59498877fe)"><path fill="#191919" d="M 216.773438 47.351562 L 60.542969 47.351562 C 58.890625 47.351562 57.238281 47.28125 55.589844 47.140625 C 53.9375 47 52.300781 46.785156 50.667969 46.503906 C 49.039062 46.222656 47.421875 45.871094 45.820312 45.449219 C 44.222656 45.03125 42.640625 44.542969 41.082031 43.984375 C 39.523438 43.429688 37.992188 42.808594 36.488281 42.121094 C 34.980469 41.433594 33.507812 40.679688 32.066406 39.867188 C 30.625 39.054688 29.222656 38.179688 27.855469 37.246094 C 26.492188 36.3125 25.167969 35.320312 23.886719 34.273438 C 22.605469 33.226562 21.371094 32.125 20.183594 30.972656 C 18.996094 29.816406 17.863281 28.617188 16.777344 27.363281 C 15.695312 26.113281 14.664062 24.820312 13.691406 23.480469 C 12.71875 22.140625 11.808594 20.761719 10.953125 19.347656 C 10.097656 17.929688 9.304688 16.476562 8.574219 14.992188 C 7.84375 13.507812 7.179688 11.992188 6.578125 10.453125 C 5.980469 8.910156 5.445312 7.34375 4.980469 5.757812 C 4.515625 4.167969 4.117188 2.5625 3.789062 0.941406 C 3.578125 1.988281 3.394531 3.039062 3.242188 4.097656 C 3.085938 5.152344 2.964844 6.214844 2.867188 7.277344 C 2.773438 8.34375 2.707031 9.40625 2.671875 10.476562 C 2.636719 11.542969 2.632812 12.609375 2.65625 13.679688 C 2.679688 14.746094 2.730469 15.8125 2.8125 16.878906 C 2.894531 17.941406 3.007812 19.003906 3.148438 20.0625 C 3.289062 21.121094 3.460938 22.175781 3.660156 23.226562 C 3.859375 24.273438 4.085938 25.316406 4.34375 26.355469 C 4.601562 27.390625 4.886719 28.417969 5.199219 29.441406 C 5.515625 30.460938 5.855469 31.472656 6.226562 32.476562 C 6.597656 33.476562 6.992188 34.46875 7.417969 35.449219 C 7.84375 36.425781 8.296875 37.394531 8.773438 38.351562 C 9.25 39.304688 9.757812 40.246094 10.285156 41.171875 C 10.816406 42.101562 11.371094 43.011719 11.953125 43.910156 C 12.535156 44.804688 13.140625 45.683594 13.769531 46.546875 C 14.398438 47.410156 15.050781 48.253906 15.726562 49.082031 C 16.402344 49.910156 17.101562 50.714844 17.824219 51.503906 C 18.542969 52.292969 19.285156 53.058594 20.050781 53.808594 C 20.8125 54.554688 21.597656 55.277344 22.398438 55.984375 C 23.203125 56.6875 24.027344 57.367188 24.867188 58.027344 C 25.707031 58.683594 26.566406 59.320312 27.441406 59.929688 C 28.320312 60.539062 29.210938 61.125 30.121094 61.6875 C 31.027344 62.25 31.953125 62.785156 32.890625 63.292969 C 33.828125 63.804688 34.78125 64.289062 35.746094 64.746094 C 36.710938 65.203125 37.6875 65.632812 38.675781 66.039062 C 39.664062 66.441406 40.664062 66.816406 41.675781 67.164062 C 42.683594 67.515625 43.703125 67.835938 44.730469 68.125 C 45.757812 68.417969 46.792969 68.679688 47.835938 68.914062 C 48.875 69.152344 49.925781 69.355469 50.976562 69.53125 C 52.03125 69.710938 53.089844 69.855469 54.148438 69.976562 C 55.210938 70.09375 56.277344 70.183594 57.34375 70.242188 C 58.410156 70.300781 59.476562 70.332031 60.542969 70.332031 L 216.773438 70.332031 C 217.84375 70.332031 218.910156 70.300781 219.976562 70.242188 C 221.042969 70.183594 222.105469 70.09375 223.167969 69.976562 C 224.230469 69.859375 225.289062 69.710938 226.339844 69.535156 C 227.394531 69.355469 228.441406 69.152344 229.484375 68.917969 C 230.527344 68.683594 231.5625 68.417969 232.589844 68.125 C 233.617188 67.835938 234.632812 67.515625 235.644531 67.167969 C 236.652344 66.816406 237.652344 66.441406 238.640625 66.039062 C 239.632812 65.636719 240.609375 65.203125 241.574219 64.746094 C 242.539062 64.289062 243.488281 63.804688 244.429688 63.296875 C 245.367188 62.785156 246.289062 62.25 247.199219 61.6875 C 248.109375 61.125 249 60.539062 249.875 59.929688 C 250.753906 59.320312 251.613281 58.683594 252.453125 58.027344 C 253.292969 57.367188 254.117188 56.6875 254.917969 55.984375 C 255.722656 55.28125 256.507812 54.554688 257.269531 53.808594 C 258.035156 53.0625 258.777344 52.292969 259.496094 51.503906 C 260.21875 50.71875 260.917969 49.910156 261.59375 49.082031 C 262.269531 48.253906 262.921875 47.410156 263.550781 46.546875 C 264.179688 45.683594 264.785156 44.804688 265.367188 43.910156 C 265.949219 43.011719 266.503906 42.101562 267.035156 41.175781 C 267.5625 40.246094 268.070312 39.304688 268.546875 38.351562 C 269.023438 37.394531 269.476562 36.429688 269.902344 35.449219 C 270.328125 34.46875 270.722656 33.476562 271.09375 32.476562 C 271.464844 31.472656 271.804688 30.460938 272.121094 29.441406 C 272.433594 28.421875 272.71875 27.390625 272.976562 26.355469 C 273.234375 25.316406 273.460938 24.273438 273.660156 23.226562 C 273.859375 22.175781 274.03125 21.121094 274.171875 20.0625 C 274.3125 19.003906 274.425781 17.941406 274.507812 16.878906 C 274.589844 15.8125 274.644531 14.746094 274.664062 13.679688 C 274.6875 12.609375 274.683594 11.542969 274.648438 10.476562 C 274.613281 9.410156 274.546875 8.34375 274.453125 7.277344 C 274.355469 6.214844 274.234375 5.15625 274.078125 4.097656 C 273.925781 3.039062 273.746094 1.988281 273.53125 0.941406 C 273.203125 2.5625 272.804688 4.167969 272.339844 5.757812 C 271.875 7.34375 271.339844 8.910156 270.738281 10.453125 C 270.140625 11.992188 269.472656 13.507812 268.746094 14.992188 C 268.015625 16.476562 267.222656 17.929688 266.367188 19.347656 C 265.511719 20.761719 264.597656 22.140625 263.625 23.480469 C 262.652344 24.820312 261.625 26.113281 260.539062 27.363281 C 259.457031 28.617188 258.320312 29.816406 257.136719 30.972656 C 255.949219 32.125 254.714844 33.226562 253.433594 34.273438 C 252.152344 35.320312 250.828125 36.3125 249.460938 37.246094 C 248.097656 38.179688 246.691406 39.054688 245.25 39.867188 C 243.808594 40.679688 242.335938 41.433594 240.832031 42.121094 C 239.328125 42.808594 237.792969 43.429688 236.234375 43.984375 C 234.675781 44.542969 233.097656 45.03125 231.496094 45.449219 C 229.894531 45.871094 228.28125 46.222656 226.648438 46.503906 C 225.019531 46.785156 223.378906 47 221.730469 47.140625 C 220.082031 47.28125 218.429688 47.351562 216.773438 47.351562 Z M 216.773438 47.351562 " fill-opacity="1" fill-rule="nonzero"/></g></g></g></g><path fill="#f5f5f5" d="M 259.640625 183.34375 C 259.640625 184.007812 259.574219 184.664062 259.445312 185.316406 C 259.316406 185.964844 259.125 186.597656 258.871094 187.210938 C 258.617188 187.824219 258.304688 188.410156 257.933594 188.960938 C 257.566406 189.511719 257.148438 190.023438 256.675781 190.492188 C 256.207031 190.964844 255.699219 191.382812 255.144531 191.75 C 254.59375 192.121094 254.011719 192.433594 253.398438 192.6875 C 252.785156 192.941406 252.152344 193.132812 251.5 193.261719 C 250.847656 193.394531 250.191406 193.457031 249.527344 193.460938 L 153.027344 193.460938 C 152.363281 193.457031 151.707031 193.394531 151.054688 193.265625 C 150.402344 193.132812 149.769531 192.941406 149.15625 192.6875 C 148.542969 192.433594 147.960938 192.121094 147.410156 191.753906 C 146.859375 191.382812 146.347656 190.964844 145.878906 190.496094 C 145.40625 190.023438 144.988281 189.515625 144.621094 188.960938 C 144.25 188.410156 143.941406 187.828125 143.6875 187.214844 C 143.433594 186.597656 143.238281 185.96875 143.109375 185.316406 C 142.980469 184.664062 142.917969 184.007812 142.917969 183.34375 C 142.917969 182.679688 142.980469 182.023438 143.113281 181.371094 C 143.242188 180.71875 143.433594 180.089844 143.6875 179.476562 C 143.945312 178.863281 144.253906 178.28125 144.625 177.730469 C 144.992188 177.175781 145.414062 176.667969 145.882812 176.199219 C 146.351562 175.730469 146.863281 175.308594 147.414062 174.941406 C 147.964844 174.574219 148.546875 174.261719 149.160156 174.007812 C 149.773438 173.753906 150.40625 173.5625 151.054688 173.433594 C 151.707031 173.304688 152.363281 173.238281 153.027344 173.238281 L 249.527344 173.238281 C 250.191406 173.238281 250.847656 173.304688 251.5 173.433594 C 252.152344 173.5625 252.78125 173.753906 253.394531 174.007812 C 254.007812 174.261719 254.589844 174.574219 255.144531 174.945312 C 255.695312 175.3125 256.207031 175.730469 256.675781 176.199219 C 257.144531 176.667969 257.5625 177.179688 257.933594 177.730469 C 258.300781 178.285156 258.613281 178.867188 258.867188 179.480469 C 259.121094 180.09375 259.3125 180.722656 259.445312 181.375 C 259.574219 182.027344 259.640625 182.683594 259.640625 183.347656 Z M 259.640625 183.34375 " fill-opacity="1" fill-rule="nonzero"/><path fill="#f5f5f5" d="M 245.210938 98.5625 C 246.253906 100.148438 247.214844 101.777344 248.09375 103.457031 C 248.976562 105.136719 249.773438 106.855469 250.484375 108.613281 C 251.195312 110.371094 251.820312 112.160156 252.355469 113.980469 C 252.890625 115.796875 253.339844 117.640625 253.691406 119.503906 C 254.046875 121.367188 254.3125 123.242188 254.484375 125.128906 C 254.652344 127.019531 254.730469 128.910156 254.714844 130.808594 C 254.703125 132.703125 254.59375 134.59375 254.394531 136.480469 C 254.191406 138.367188 253.898438 140.238281 253.515625 142.09375 C 253.128906 143.953125 252.65625 145.785156 252.089844 147.597656 C 251.523438 149.40625 250.871094 151.183594 250.132812 152.929688 C 249.394531 154.675781 248.570312 156.382812 247.664062 158.046875 C 246.753906 159.714844 245.769531 161.332031 244.703125 162.898438 C 243.636719 164.46875 242.496094 165.980469 241.28125 167.4375 C 240.066406 168.890625 238.785156 170.285156 237.433594 171.617188 C 236.082031 172.945312 234.667969 174.207031 233.191406 175.398438 C 231.714844 176.589844 230.183594 177.707031 228.601562 178.746094 L 98.015625 264.507812 C 96.429688 265.550781 94.800781 266.511719 93.121094 267.390625 C 91.441406 268.273438 89.722656 269.070312 87.964844 269.78125 C 86.207031 270.492188 84.417969 271.117188 82.597656 271.652344 C 80.78125 272.191406 78.9375 272.636719 77.074219 272.992188 C 75.214844 273.347656 73.335938 273.609375 71.449219 273.78125 C 69.558594 273.949219 67.667969 274.027344 65.769531 274.015625 C 63.875 274 61.984375 273.890625 60.097656 273.691406 C 58.210938 273.488281 56.339844 273.195312 54.484375 272.8125 C 52.625 272.425781 50.792969 271.953125 48.984375 271.386719 C 47.171875 270.824219 45.394531 270.171875 43.648438 269.429688 C 41.902344 268.691406 40.195312 267.867188 38.53125 266.960938 C 36.863281 266.054688 35.25 265.066406 33.679688 264 C 32.113281 262.933594 30.597656 261.792969 29.144531 260.582031 C 27.6875 259.367188 26.292969 258.082031 24.960938 256.730469 C 23.632812 255.378906 22.371094 253.964844 21.179688 252.492188 C 19.988281 251.015625 18.871094 249.484375 17.832031 247.898438 C 16.789062 246.3125 15.832031 244.683594 14.949219 243.003906 C 14.070312 241.324219 13.273438 239.605469 12.5625 237.847656 C 11.851562 236.089844 11.226562 234.300781 10.691406 232.480469 C 10.15625 230.664062 9.707031 228.820312 9.355469 226.960938 C 9 225.097656 8.734375 223.222656 8.566406 221.332031 C 8.394531 219.445312 8.316406 217.550781 8.332031 215.65625 C 8.347656 213.757812 8.453125 211.867188 8.65625 209.980469 C 8.855469 208.097656 9.148438 206.226562 9.535156 204.367188 C 9.917969 202.511719 10.394531 200.679688 10.957031 198.867188 C 11.523438 197.058594 12.175781 195.28125 12.914062 193.535156 C 13.65625 191.789062 14.480469 190.082031 15.386719 188.417969 C 16.292969 186.75 17.28125 185.136719 18.34375 183.566406 C 19.410156 182 20.550781 180.484375 21.765625 179.03125 C 22.980469 177.574219 24.265625 176.179688 25.617188 174.851562 C 26.96875 173.519531 28.378906 172.257812 29.855469 171.066406 C 31.332031 169.875 32.863281 168.761719 34.445312 167.71875 L 165.03125 81.964844 C 166.617188 80.925781 168.25 79.964844 169.929688 79.082031 C 171.609375 78.203125 173.328125 77.40625 175.082031 76.695312 C 176.839844 75.980469 178.628906 75.359375 180.449219 74.820312 C 182.265625 74.285156 184.109375 73.839844 185.96875 73.484375 C 187.832031 73.128906 189.707031 72.863281 191.597656 72.695312 C 193.484375 72.523438 195.378906 72.445312 197.273438 72.460938 C 199.167969 72.472656 201.058594 72.582031 202.945312 72.78125 C 204.832031 72.980469 206.703125 73.273438 208.558594 73.660156 C 210.417969 74.042969 212.25 74.519531 214.058594 75.082031 C 215.871094 75.648438 217.648438 76.296875 219.394531 77.039062 C 221.140625 77.777344 222.847656 78.601562 224.511719 79.507812 C 226.175781 80.414062 227.792969 81.398438 229.363281 82.464844 C 230.929688 83.53125 232.445312 84.671875 233.898438 85.886719 C 235.355469 87.097656 236.75 88.382812 238.082031 89.734375 C 239.410156 91.085938 240.671875 92.496094 241.863281 93.972656 C 243.054688 95.445312 244.171875 96.976562 245.210938 98.5625 Z M 245.210938 98.5625 " fill-opacity="1" fill-rule="nonzero"/><g mask="url(#783cec270a)"><g transform="matrix(1, 0, 0, 1, 8, 72)"><g clip-path="url(#f2bf1ca959)"><g clip-path="url(#e50c47fb01)"><path fill="#191919" d="M 237.210938 26.5625 C 238.253906 28.148438 239.214844 29.777344 240.09375 31.457031 C 240.976562 33.136719 241.773438 34.855469 242.484375 36.613281 C 243.195312 38.371094 243.820312 40.160156 244.355469 41.980469 C 244.890625 43.796875 245.339844 45.640625 245.691406 47.503906 C 246.046875 49.367188 246.3125 51.242188 246.484375 53.128906 C 246.652344 55.019531 246.730469 56.910156 246.714844 58.808594 C 246.703125 60.703125 246.59375 62.59375 246.394531 64.480469 C 246.191406 66.367188 245.898438 68.238281 245.515625 70.09375 C 245.128906 71.953125 244.65625 73.785156 244.089844 75.597656 C 243.523438 77.40625 242.871094 79.183594 242.132812 80.929688 C 241.394531 82.675781 240.570312 84.382812 239.664062 86.046875 C 238.753906 87.714844 237.769531 89.332031 236.703125 90.898438 C 235.636719 92.46875 234.496094 93.980469 233.28125 95.4375 C 232.066406 96.890625 230.785156 98.285156 229.433594 99.617188 C 228.082031 100.945312 226.667969 102.207031 225.191406 103.398438 C 223.714844 104.589844 222.183594 105.707031 220.601562 106.746094 L 90.015625 192.507812 C 88.429688 193.550781 86.800781 194.511719 85.121094 195.390625 C 83.441406 196.273438 81.722656 197.070312 79.964844 197.78125 C 78.207031 198.492188 76.417969 199.117188 74.597656 199.652344 C 72.78125 200.191406 70.9375 200.636719 69.074219 200.992188 C 67.214844 201.347656 65.335938 201.609375 63.449219 201.78125 C 61.558594 201.949219 59.667969 202.027344 57.769531 202.015625 C 55.875 202 53.984375 201.890625 52.097656 201.691406 C 50.210938 201.488281 48.339844 201.195312 46.484375 200.8125 C 44.625 200.425781 42.792969 199.953125 40.984375 199.386719 C 39.171875 198.824219 37.394531 198.171875 35.648438 197.429688 C 33.902344 196.691406 32.195312 195.867188 30.53125 194.960938 C 28.863281 194.054688 27.25 193.066406 25.679688 192 C 24.113281 190.933594 22.597656 189.792969 21.144531 188.582031 C 19.6875 187.367188 18.292969 186.082031 16.960938 184.730469 C 15.632812 183.378906 14.371094 181.964844 13.179688 180.492188 C 11.988281 179.015625 10.871094 177.484375 9.832031 175.898438 C 8.789062 174.3125 7.832031 172.683594 6.949219 171.003906 C 6.070312 169.324219 5.273438 167.605469 4.5625 165.847656 C 3.851562 164.089844 3.226562 162.300781 2.691406 160.480469 C 2.15625 158.664062 1.707031 156.820312 1.355469 154.960938 C 1 153.097656 0.734375 151.222656 0.566406 149.332031 C 0.394531 147.445312 0.316406 145.550781 0.332031 143.65625 C 0.347656 141.757812 0.453125 139.867188 0.65625 137.980469 C 0.855469 136.097656 1.148438 134.226562 1.535156 132.367188 C 1.917969 130.511719 2.394531 128.679688 2.957031 126.867188 C 3.523438 125.058594 4.175781 123.28125 4.914062 121.535156 C 5.65625 119.789062 6.480469 118.082031 7.386719 116.417969 C 8.292969 114.75 9.28125 113.136719 10.34375 111.566406 C 11.410156 110 12.550781 108.484375 13.765625 107.03125 C 14.980469 105.574219 16.265625 104.179688 17.617188 102.851562 C 18.96875 101.519531 20.378906 100.257812 21.855469 99.066406 C 23.332031 97.875 24.863281 96.761719 26.445312 95.71875 L 157.03125 9.964844 C 158.617188 8.925781 160.25 7.964844 161.929688 7.082031 C 163.609375 6.203125 165.328125 5.40625 167.082031 4.695312 C 168.839844 3.980469 170.628906 3.359375 172.449219 2.820312 C 174.265625 2.285156 176.109375 1.839844 177.96875 1.484375 C 179.832031 1.128906 181.707031 0.863281 183.597656 0.695312 C 185.484375 0.523438 187.378906 0.445312 189.273438 0.460938 C 191.167969 0.472656 193.058594 0.582031 194.945312 0.78125 C 196.832031 0.980469 198.703125 1.273438 200.558594 1.660156 C 202.417969 2.042969 204.25 2.519531 206.058594 3.082031 C 207.871094 3.648438 209.648438 4.296875 211.394531 5.039062 C 213.140625 5.777344 214.847656 6.601562 216.511719 7.507812 C 218.175781 8.414062 219.792969 9.398438 221.363281 10.464844 C 222.929688 11.53125 224.445312 12.671875 225.898438 13.886719 C 227.355469 15.097656 228.75 16.382812 230.082031 17.734375 C 231.410156 19.085938 232.671875 20.496094 233.863281 21.972656 C 235.054688 23.445312 236.171875 24.976562 237.210938 26.5625 Z M 237.210938 26.5625 " fill-opacity="1" fill-rule="nonzero"/></g></g></g></g><path fill="#132540" d="M 99.742188 124.835938 L 165.03125 81.964844 C 166.617188 80.925781 168.25 79.964844 169.929688 79.082031 C 171.609375 78.203125 173.328125 77.40625 175.082031 76.695312 C 176.839844 75.980469 178.628906 75.359375 180.449219 74.820312 C 182.265625 74.285156 184.109375 73.839844 185.96875 73.484375 C 187.832031 73.128906 189.707031 72.863281 191.597656 72.695312 C 193.484375 72.523438 195.378906 72.445312 197.273438 72.460938 C 199.167969 72.472656 201.058594 72.582031 202.945312 72.78125 C 204.832031 72.980469 206.703125 73.273438 208.558594 73.660156 C 210.417969 74.042969 212.25 74.519531 214.058594 75.082031 C 215.871094 75.648438 217.648438 76.296875 219.394531 77.039062 C 221.140625 77.777344 222.847656 78.601562 224.511719 79.507812 C 226.175781 80.414062 227.792969 81.398438 229.363281 82.464844 C 230.929688 83.53125 232.445312 84.671875 233.898438 85.886719 C 235.355469 87.097656 236.75 88.382812 238.082031 89.734375 C 239.410156 91.085938 240.671875 92.496094 241.863281 93.972656 C 243.054688 95.445312 244.171875 96.976562 245.210938 98.5625 C 246.253906 100.148438 247.214844 101.777344 248.09375 103.457031 C 248.976562 105.136719 249.773438 106.855469 250.484375 108.613281 C 251.195312 110.371094 251.820312 112.160156 252.355469 113.980469 C 252.890625 115.796875 253.339844 117.640625 253.691406 119.503906 C 254.046875 121.367188 254.3125 123.242188 254.484375 125.128906 C 254.652344 127.019531 254.730469 128.910156 254.714844 130.808594 C 254.703125 132.703125 254.59375 134.59375 254.394531 136.480469 C 254.191406 138.367188 253.898438 140.238281 253.515625 142.09375 C 253.128906 143.953125 252.65625 145.785156 252.089844 147.597656 C 251.523438 149.40625 250.871094 151.183594 250.132812 152.929688 C 249.394531 154.675781 248.570312 156.382812 247.664062 158.046875 C 246.753906 159.714844 245.769531 161.332031 244.703125 162.898438 C 243.636719 164.46875 242.496094 165.980469 241.28125 167.4375 C 240.066406 168.890625 238.785156 170.285156 237.433594 171.617188 C 236.082031 172.945312 234.667969 174.207031 233.191406 175.398438 C 231.714844 176.589844 230.183594 177.707031 228.601562 178.746094 L 163.3125 221.628906 Z M 99.742188 124.835938 " fill-opacity="1" fill-rule="nonzero"/><g mask="url(#261217f877)"><g transform="matrix(1, 0, 0, 1, 10, 88)"><g clip-path="url(#a11d8c5ba5)"><g clip-path="url(#3eda704b43)"><path fill="#191919" d="M 205.988281 71.535156 L 75.402344 157.304688 C 74.019531 158.214844 72.601562 159.0625 71.144531 159.847656 C 69.6875 160.636719 68.199219 161.359375 66.683594 162.019531 C 65.164062 162.679688 63.621094 163.273438 62.050781 163.796875 C 60.484375 164.324219 58.894531 164.785156 57.285156 165.175781 C 55.679688 165.566406 54.054688 165.886719 52.421875 166.140625 C 50.785156 166.390625 49.140625 166.574219 47.488281 166.683594 C 45.835938 166.796875 44.183594 166.835938 42.53125 166.804688 C 40.875 166.773438 39.222656 166.671875 37.578125 166.5 C 35.933594 166.328125 34.296875 166.085938 32.671875 165.773438 C 31.046875 165.460938 29.4375 165.078125 27.84375 164.628906 C 26.25 164.175781 24.679688 163.660156 23.132812 163.074219 C 21.585938 162.488281 20.0625 161.835938 18.570312 161.121094 C 17.078125 160.40625 15.621094 159.628906 14.195312 158.789062 C 12.769531 157.945312 11.382812 157.046875 10.03125 156.085938 C 8.683594 155.128906 7.378906 154.113281 6.117188 153.039062 C 4.855469 151.96875 3.644531 150.84375 2.476562 149.667969 C 2.875 150.660156 3.300781 151.640625 3.753906 152.609375 C 4.207031 153.574219 4.683594 154.53125 5.1875 155.472656 C 5.695312 156.414062 6.222656 157.339844 6.78125 158.25 C 7.335938 159.164062 7.917969 160.058594 8.523438 160.9375 C 9.128906 161.820312 9.757812 162.679688 10.410156 163.527344 C 11.066406 164.371094 11.742188 165.199219 12.441406 166.003906 C 13.140625 166.8125 13.859375 167.601562 14.605469 168.367188 C 15.347656 169.136719 16.109375 169.882812 16.894531 170.609375 C 17.679688 171.332031 18.480469 172.035156 19.304688 172.71875 C 20.128906 173.398438 20.96875 174.054688 21.828125 174.691406 C 22.6875 175.324219 23.5625 175.933594 24.457031 176.519531 C 25.351562 177.105469 26.257812 177.667969 27.183594 178.203125 C 28.105469 178.738281 29.046875 179.25 29.996094 179.734375 C 30.949219 180.214844 31.914062 180.671875 32.894531 181.105469 C 33.871094 181.535156 34.859375 181.9375 35.859375 182.3125 C 36.859375 182.6875 37.867188 183.035156 38.886719 183.355469 C 39.90625 183.675781 40.933594 183.96875 41.96875 184.230469 C 43.003906 184.492188 44.046875 184.726562 45.09375 184.933594 C 46.144531 185.136719 47.195312 185.316406 48.253906 185.460938 C 49.3125 185.609375 50.375 185.726562 51.4375 185.816406 C 52.503906 185.902344 53.570312 185.960938 54.636719 185.992188 C 55.703125 186.019531 56.773438 186.019531 57.839844 185.992188 C 58.90625 185.960938 59.972656 185.902344 61.039062 185.8125 C 62.101562 185.722656 63.164062 185.605469 64.222656 185.457031 C 65.28125 185.3125 66.332031 185.132812 67.382812 184.929688 C 68.429688 184.722656 69.472656 184.488281 70.507812 184.226562 C 71.542969 183.960938 72.570312 183.671875 73.589844 183.351562 C 74.605469 183.03125 75.617188 182.683594 76.617188 182.304688 C 77.617188 181.929688 78.605469 181.527344 79.582031 181.09375 C 80.558594 180.664062 81.523438 180.207031 82.476562 179.722656 C 83.429688 179.238281 84.367188 178.730469 85.289062 178.191406 C 86.214844 177.65625 87.125 177.097656 88.015625 176.507812 L 218.601562 90.746094 C 219.496094 90.160156 220.371094 89.550781 221.230469 88.914062 C 222.089844 88.277344 222.929688 87.621094 223.75 86.9375 C 224.574219 86.257812 225.375 85.554688 226.160156 84.828125 C 226.945312 84.101562 227.707031 83.355469 228.449219 82.585938 C 229.191406 81.820312 229.910156 81.03125 230.609375 80.222656 C 231.308594 79.414062 231.984375 78.585938 232.636719 77.742188 C 233.289062 76.898438 233.917969 76.035156 234.523438 75.152344 C 235.128906 74.273438 235.707031 73.378906 236.265625 72.464844 C 236.820312 71.554688 237.351562 70.625 237.855469 69.683594 C 238.359375 68.742188 238.835938 67.789062 239.289062 66.820312 C 239.738281 65.851562 240.164062 64.871094 240.558594 63.882812 C 240.957031 62.890625 241.328125 61.886719 241.667969 60.875 C 242.011719 59.863281 242.324219 58.84375 242.609375 57.8125 C 242.894531 56.785156 243.152344 55.75 243.378906 54.703125 C 243.605469 53.660156 243.804688 52.613281 243.976562 51.558594 C 244.144531 50.503906 244.285156 49.445312 244.398438 48.382812 C 244.507812 47.320312 244.589844 46.257812 244.644531 45.1875 C 244.695312 44.121094 244.71875 43.054688 244.710938 41.988281 C 244.707031 40.917969 244.667969 39.851562 244.605469 38.785156 C 244.539062 37.71875 244.445312 36.65625 244.320312 35.59375 C 244.195312 34.535156 244.039062 33.476562 243.859375 32.425781 C 243.675781 31.375 243.464844 30.328125 243.222656 29.285156 C 242.980469 28.246094 242.710938 27.210938 242.414062 26.1875 C 242.117188 25.160156 241.789062 24.144531 241.4375 23.136719 C 241.082031 22.128906 240.699219 21.132812 240.292969 20.144531 C 239.882812 19.160156 239.445312 18.183594 238.980469 17.222656 C 238.519531 16.261719 238.03125 15.3125 237.511719 14.375 C 236.996094 13.441406 236.457031 12.519531 235.890625 11.613281 C 235.324219 10.710938 234.730469 9.820312 234.117188 8.949219 C 233.5 8.074219 232.859375 7.21875 232.199219 6.382812 C 231.535156 5.546875 230.847656 4.726562 230.140625 3.925781 C 229.433594 3.128906 228.703125 2.347656 227.949219 1.589844 C 228.566406 3.125 229.113281 4.6875 229.597656 6.269531 C 230.078125 7.851562 230.492188 9.453125 230.835938 11.070312 C 231.179688 12.691406 231.457031 14.320312 231.660156 15.960938 C 231.867188 17.605469 232 19.253906 232.0625 20.90625 C 232.128906 22.558594 232.121094 24.210938 232.042969 25.867188 C 231.964844 27.519531 231.816406 29.164062 231.597656 30.804688 C 231.378906 32.445312 231.089844 34.074219 230.730469 35.6875 C 230.371094 37.304688 229.945312 38.902344 229.449219 40.480469 C 228.953125 42.058594 228.390625 43.613281 227.761719 45.144531 C 227.132812 46.675781 226.4375 48.175781 225.679688 49.648438 C 224.921875 51.117188 224.105469 52.554688 223.222656 53.957031 C 222.34375 55.355469 221.402344 56.71875 220.40625 58.039062 C 219.410156 59.359375 218.355469 60.632812 217.25 61.863281 C 216.140625 63.09375 214.984375 64.273438 213.777344 65.40625 C 212.570312 66.535156 211.316406 67.613281 210.015625 68.636719 C 208.714844 69.660156 207.371094 70.625 205.988281 71.535156 Z M 205.988281 71.535156 " fill-opacity="1" fill-rule="nonzero"/></g></g></g></g><path fill="#f5f5f5" d="M 132.574219 132.960938 C 132.9375 133.515625 133.246094 134.101562 133.496094 134.71875 C 133.742188 135.332031 133.929688 135.96875 134.054688 136.621094 C 134.179688 137.273438 134.238281 137.929688 134.234375 138.59375 C 134.226562 139.257812 134.160156 139.914062 134.023438 140.566406 C 133.890625 141.214844 133.691406 141.847656 133.433594 142.457031 C 133.175781 143.070312 132.859375 143.648438 132.484375 144.199219 C 132.113281 144.75 131.6875 145.257812 131.214844 145.722656 C 130.742188 146.1875 130.226562 146.605469 129.671875 146.96875 L 49.011719 199.945312 C 48.457031 200.308594 47.871094 200.617188 47.257812 200.867188 C 46.640625 201.113281 46.007812 201.300781 45.355469 201.425781 C 44.703125 201.550781 44.042969 201.609375 43.378906 201.605469 C 42.714844 201.597656 42.058594 201.527344 41.40625 201.394531 C 40.757812 201.257812 40.125 201.0625 39.515625 200.800781 C 38.902344 200.542969 38.324219 200.226562 37.773438 199.851562 C 37.226562 199.480469 36.71875 199.054688 36.25 198.582031 C 35.785156 198.109375 35.371094 197.59375 35.007812 197.039062 C 34.640625 196.484375 34.335938 195.898438 34.085938 195.285156 C 33.839844 194.667969 33.652344 194.035156 33.527344 193.382812 C 33.402344 192.730469 33.34375 192.074219 33.347656 191.410156 C 33.355469 190.746094 33.425781 190.089844 33.558594 189.441406 C 33.695312 188.789062 33.890625 188.160156 34.152344 187.546875 C 34.410156 186.9375 34.726562 186.355469 35.097656 185.808594 C 35.472656 185.257812 35.894531 184.75 36.367188 184.285156 C 36.839844 183.820312 37.355469 183.40625 37.910156 183.039062 L 118.566406 130.066406 C 119.121094 129.703125 119.707031 129.394531 120.324219 129.144531 C 120.9375 128.894531 121.574219 128.710938 122.226562 128.585938 C 122.875 128.460938 123.535156 128.402344 124.199219 128.40625 C 124.863281 128.410156 125.519531 128.480469 126.171875 128.613281 C 126.820312 128.75 127.453125 128.945312 128.0625 129.203125 C 128.675781 129.464844 129.253906 129.777344 129.804688 130.152344 C 130.355469 130.523438 130.863281 130.949219 131.328125 131.421875 C 131.792969 131.894531 132.210938 132.40625 132.574219 132.960938 Z M 132.574219 132.960938 " fill-opacity="1" fill-rule="nonzero"/></svg>