<svg xmlns="http://www.w3.org/2000/svg" xmlns:xlink="http://www.w3.org/1999/xlink" width="500" zoomAndPan="magnify" viewBox="0 0 375 374.999991" height="500" preserveAspectRatio="xMidYMid meet" version="1.0"><defs><clipPath id="4be221a826"><path d="M 275 37.5 L 322 37.5 L 322 62 L 275 62 Z M 275 37.5 " clip-rule="nonzero"/></clipPath></defs><path fill="#fffffd" d="M 307.167969 193.527344 L 286.082031 174.335938 L 246.394531 153.238281 L 206.734375 193.804688 C 187.828125 213.179688 188.160156 244.105469 207.503906 263.070312 C 210.9375 266.4375 214.703125 269.175781 218.71875 271.3125 C 237.417969 281.25 261.207031 278.15625 276.710938 262.269531 L 316.40625 221.648438 Z M 307.167969 193.527344 " fill-opacity="1" fill-rule="nonzero"/><path fill="#ef3f24" d="M 356.097656 181.027344 L 316.40625 221.648438 L 246.394531 153.238281 L 286.089844 112.617188 C 301.59375 96.734375 325.382812 93.636719 344.082031 103.578125 C 348.097656 105.710938 351.867188 108.449219 355.296875 111.820312 C 374.613281 130.695312 374.972656 161.710938 356.097656 181.027344 Z M 356.097656 181.027344 " fill-opacity="1" fill-rule="nonzero"/><path fill="#3da2a4" d="M 128.097656 179.453125 L 95.976562 139.300781 L 51.710938 115.710938 C 46.773438 118.046875 42.03125 120.972656 37.484375 124.480469 C 33.003906 127.988281 28.910156 131.882812 25.46875 136.105469 L 25.46875 162.429688 L 37.835938 174.796875 L 121.019531 259.136719 C 125.957031 256.730469 130.699219 253.808594 135.179688 250.300781 C 139.855469 246.664062 143.949219 242.636719 147.523438 238.285156 Z M 128.097656 179.453125 " fill-opacity="1" fill-rule="nonzero"/><path fill="#99d9d9" d="M 147.523438 238.285156 L 51.710938 115.710938 C 84.839844 99.664062 125.761719 108.371094 149.277344 138.574219 C 172.59375 168.585938 171.035156 210.222656 147.523438 238.285156 Z M 147.523438 238.285156 " fill-opacity="1" fill-rule="nonzero"/><path fill="#99d9d9" d="M 121.019531 259.136719 C 87.890625 275.246094 46.902344 266.539062 23.386719 236.269531 C -0.0625 206.066406 1.628906 164.234375 25.46875 136.105469 Z M 121.019531 259.136719 " fill-opacity="1" fill-rule="nonzero"/><g clip-path="url(#4be221a826)"><path stroke-linecap="butt" transform="matrix(1.609442, 0, 0, 1.609442, -0.804716, 32.071155)" fill="none" stroke-linejoin="miter" d="M 186.353921 4.042998 L 186.111212 3.720196 " stroke="#cdaf2c" stroke-width="1" stroke-opacity="1" stroke-miterlimit="10"/></g><path fill="#fdd40f" d="M 133.519531 323.878906 L 162.882812 198.902344 L 104.421875 199.679688 L 240.570312 42.03125 L 208.027344 165.382812 L 272.269531 165.382812 Z M 133.519531 323.878906 " fill-opacity="1" fill-rule="nonzero"/></svg>