<svg xmlns="http://www.w3.org/2000/svg" xmlns:xlink="http://www.w3.org/1999/xlink" width="500" zoomAndPan="magnify" viewBox="0 0 375 374.999991" height="500" preserveAspectRatio="xMidYMid meet" version="1.0"><defs><g/><clipPath id="cf6159035c"><path d="M 61.078125 84.660156 L 312.636719 84.660156 L 312.636719 336.21875 L 61.078125 336.21875 Z M 61.078125 84.660156 " clip-rule="nonzero"/></clipPath></defs><path fill="#ea2d40" d="M 173.617188 150.859375 L 200.097656 150.859375 L 200.097656 157.480469 L 173.617188 157.480469 Z M 173.617188 150.859375 " fill-opacity="1" fill-rule="nonzero"/><g clip-path="url(#cf6159035c)"><path fill="#ea2d40" d="M 186.859375 84.660156 C 184.800781 84.660156 182.742188 84.710938 180.6875 84.8125 C 178.632812 84.914062 176.578125 85.0625 174.53125 85.265625 C 172.480469 85.46875 170.441406 85.71875 168.402344 86.019531 C 166.367188 86.324219 164.339844 86.675781 162.320312 87.078125 C 160.300781 87.476562 158.292969 87.929688 156.296875 88.429688 C 154.300781 88.929688 152.316406 89.476562 150.347656 90.074219 C 148.378906 90.671875 146.421875 91.320312 144.484375 92.011719 C 142.546875 92.707031 140.628906 93.445312 138.726562 94.234375 C 136.824219 95.023438 134.941406 95.855469 133.082031 96.734375 C 131.21875 97.617188 129.382812 98.542969 127.566406 99.511719 C 125.75 100.480469 123.960938 101.496094 122.195312 102.554688 C 120.429688 103.613281 118.691406 104.714844 116.980469 105.855469 C 115.269531 107 113.585938 108.1875 111.933594 109.410156 C 110.277344 110.636719 108.65625 111.90625 107.066406 113.210938 C 105.472656 114.515625 103.917969 115.859375 102.390625 117.242188 C 100.867188 118.625 99.375 120.042969 97.917969 121.5 C 96.464844 122.953125 95.046875 124.445312 93.664062 125.96875 C 92.28125 127.496094 90.9375 129.054688 89.628906 130.644531 C 88.324219 132.238281 87.058594 133.859375 85.832031 135.511719 C 84.605469 137.164062 83.421875 138.847656 82.277344 140.558594 C 81.132812 142.269531 80.03125 144.011719 78.976562 145.777344 C 77.917969 147.542969 76.902344 149.332031 75.933594 151.148438 C 74.960938 152.960938 74.035156 154.800781 73.15625 156.660156 C 72.277344 158.523438 71.441406 160.402344 70.652344 162.304688 C 69.867188 164.207031 69.125 166.128906 68.433594 168.066406 C 67.738281 170.003906 67.09375 171.957031 66.496094 173.925781 C 65.898438 175.898438 65.347656 177.878906 64.847656 179.878906 C 64.347656 181.875 63.898438 183.882812 63.496094 185.902344 C 63.09375 187.917969 62.742188 189.945312 62.441406 191.984375 C 62.140625 194.019531 61.886719 196.0625 61.683594 198.109375 C 61.484375 200.160156 61.332031 202.210938 61.230469 204.265625 C 61.128906 206.324219 61.078125 208.378906 61.078125 210.4375 C 61.078125 212.496094 61.128906 214.554688 61.230469 216.609375 C 61.332031 218.667969 61.484375 220.71875 61.683594 222.765625 C 61.886719 224.816406 62.140625 226.859375 62.441406 228.894531 C 62.742188 230.929688 63.09375 232.957031 63.496094 234.976562 C 63.898438 236.996094 64.347656 239.003906 64.847656 241 C 65.347656 242.996094 65.898438 244.980469 66.496094 246.949219 C 67.09375 248.921875 67.738281 250.875 68.433594 252.8125 C 69.125 254.75 69.867188 256.671875 70.652344 258.574219 C 71.441406 260.472656 72.277344 262.355469 73.15625 264.214844 C 74.035156 266.078125 74.960938 267.914062 75.933594 269.730469 C 76.902344 271.546875 77.917969 273.335938 78.976562 275.101562 C 80.03125 276.867188 81.132812 278.605469 82.277344 280.316406 C 83.421875 282.03125 84.605469 283.710938 85.832031 285.367188 C 87.058594 287.019531 88.324219 288.640625 89.628906 290.230469 C 90.9375 291.824219 92.28125 293.382812 93.664062 294.90625 C 95.046875 296.433594 96.464844 297.921875 97.917969 299.378906 C 99.375 300.832031 100.867188 302.253906 102.390625 303.636719 C 103.917969 305.015625 105.472656 306.363281 107.066406 307.667969 C 108.65625 308.972656 110.277344 310.238281 111.933594 311.464844 C 113.585938 312.691406 115.269531 313.875 116.980469 315.019531 C 118.691406 316.164062 120.429688 317.265625 122.195312 318.324219 C 123.960938 319.382812 125.75 320.394531 127.566406 321.367188 C 129.382812 322.335938 131.21875 323.261719 133.082031 324.140625 C 134.941406 325.023438 136.824219 325.855469 138.726562 326.644531 C 140.628906 327.429688 142.546875 328.171875 144.484375 328.867188 C 146.421875 329.558594 148.378906 330.203125 150.347656 330.800781 C 152.316406 331.398438 154.300781 331.949219 156.296875 332.449219 C 158.292969 332.949219 160.300781 333.398438 162.320312 333.800781 C 164.339844 334.203125 166.367188 334.554688 168.402344 334.855469 C 170.441406 335.160156 172.480469 335.410156 174.53125 335.613281 C 176.578125 335.8125 178.632812 335.964844 180.6875 336.066406 C 182.742188 336.167969 184.800781 336.21875 186.859375 336.21875 C 188.917969 336.21875 190.976562 336.167969 193.03125 336.066406 C 195.085938 335.964844 197.140625 335.8125 199.1875 335.613281 C 201.234375 335.410156 203.277344 335.160156 205.316406 334.855469 C 207.351562 334.554688 209.378906 334.203125 211.398438 333.800781 C 213.417969 333.398438 215.425781 332.949219 217.421875 332.449219 C 219.417969 331.949219 221.402344 331.398438 223.371094 330.800781 C 225.339844 330.203125 227.292969 329.558594 229.234375 328.867188 C 231.171875 328.171875 233.089844 327.429688 234.992188 326.644531 C 236.894531 325.855469 238.777344 325.023438 240.636719 324.140625 C 242.496094 323.261719 244.335938 322.335938 246.152344 321.367188 C 247.964844 320.394531 249.757812 319.382812 251.523438 318.324219 C 253.289062 317.265625 255.027344 316.164062 256.738281 315.019531 C 258.449219 313.875 260.132812 312.691406 261.785156 311.464844 C 263.4375 310.238281 265.0625 308.972656 266.652344 307.667969 C 268.242188 306.363281 269.800781 305.015625 271.328125 303.636719 C 272.851562 302.253906 274.34375 300.832031 275.796875 299.378906 C 277.253906 297.921875 278.671875 296.433594 280.054688 294.90625 C 281.4375 293.382812 282.78125 291.824219 284.085938 290.230469 C 285.394531 288.640625 286.660156 287.019531 287.886719 285.367188 C 289.113281 283.710938 290.296875 282.03125 291.441406 280.316406 C 292.585938 278.605469 293.683594 276.867188 294.742188 275.101562 C 295.800781 273.335938 296.816406 271.546875 297.785156 269.730469 C 298.757812 267.914062 299.683594 266.078125 300.5625 264.214844 C 301.441406 262.355469 302.277344 260.472656 303.0625 258.574219 C 303.851562 256.671875 304.59375 254.75 305.285156 252.8125 C 305.980469 250.875 306.625 248.921875 307.222656 246.949219 C 307.820312 244.980469 308.367188 242.996094 308.867188 241 C 309.367188 239.003906 309.820312 236.996094 310.222656 234.976562 C 310.621094 232.957031 310.976562 230.929688 311.277344 228.894531 C 311.578125 226.859375 311.832031 224.816406 312.03125 222.765625 C 312.234375 220.71875 312.386719 218.667969 312.488281 216.609375 C 312.585938 214.554688 312.636719 212.496094 312.636719 210.4375 C 312.636719 208.382812 312.582031 206.324219 312.480469 204.269531 C 312.378906 202.214844 312.222656 200.164062 312.019531 198.113281 C 311.816406 196.066406 311.5625 194.027344 311.257812 191.988281 C 310.953125 189.953125 310.601562 187.929688 310.199219 185.910156 C 309.796875 183.890625 309.34375 181.886719 308.839844 179.890625 C 308.339844 177.894531 307.789062 175.910156 307.191406 173.941406 C 306.59375 171.972656 305.945312 170.019531 305.25 168.082031 C 304.558594 166.148438 303.816406 164.226562 303.027344 162.328125 C 302.238281 160.425781 301.402344 158.546875 300.523438 156.6875 C 299.640625 154.824219 298.714844 152.988281 297.746094 151.175781 C 296.773438 149.359375 295.761719 147.570312 294.703125 145.804688 C 293.644531 144.039062 292.542969 142.304688 291.398438 140.59375 C 290.253906 138.882812 289.070312 137.199219 287.84375 135.546875 C 286.617188 133.894531 285.351562 132.273438 284.046875 130.683594 C 282.738281 129.09375 281.394531 127.535156 280.011719 126.011719 C 278.632812 124.484375 277.210938 122.996094 275.757812 121.539062 C 274.300781 120.085938 272.8125 118.667969 271.289062 117.285156 C 269.761719 115.902344 268.207031 114.558594 266.613281 113.253906 C 265.023438 111.945312 263.402344 110.679688 261.75 109.453125 C 260.097656 108.230469 258.417969 107.042969 256.707031 105.898438 C 254.996094 104.757812 253.257812 103.65625 251.492188 102.597656 C 249.726562 101.539062 247.9375 100.523438 246.125 99.550781 C 244.308594 98.582031 242.472656 97.65625 240.613281 96.773438 C 238.753906 95.894531 236.871094 95.058594 234.972656 94.269531 C 233.070312 93.484375 231.152344 92.742188 229.214844 92.046875 C 227.277344 91.351562 225.324219 90.707031 223.355469 90.105469 C 221.386719 89.507812 219.402344 88.957031 217.410156 88.457031 C 215.414062 87.953125 213.40625 87.503906 211.386719 87.097656 C 209.371094 86.695312 207.34375 86.34375 205.308594 86.039062 C 203.273438 85.734375 201.230469 85.480469 199.183594 85.277344 C 197.136719 85.074219 195.082031 84.921875 193.027344 84.816406 C 190.972656 84.714844 188.917969 84.660156 186.859375 84.660156 Z M 239.820312 258.042969 C 239.796875 258.890625 239.730469 259.734375 239.625 260.574219 C 239.519531 261.414062 239.371094 262.25 239.183594 263.074219 C 238.996094 263.902344 238.769531 264.71875 238.5 265.523438 C 238.234375 266.324219 237.925781 267.113281 237.582031 267.890625 C 237.238281 268.664062 236.855469 269.417969 236.433594 270.15625 C 236.015625 270.890625 235.5625 271.605469 235.074219 272.296875 C 234.582031 272.988281 234.0625 273.65625 233.507812 274.296875 C 232.953125 274.9375 232.367188 275.550781 231.753906 276.132812 C 231.140625 276.71875 230.5 277.269531 229.828125 277.789062 C 229.160156 278.3125 228.46875 278.796875 227.753906 279.25 C 227.035156 279.703125 226.300781 280.121094 225.542969 280.5 C 224.785156 280.882812 224.011719 281.226562 223.21875 281.53125 C 222.429688 281.835938 221.625 282.101562 220.808594 282.328125 C 219.992188 282.550781 219.167969 282.738281 218.332031 282.882812 C 217.496094 283.027344 216.65625 283.132812 215.8125 283.195312 C 214.964844 283.257812 214.121094 283.277344 213.273438 283.257812 L 160.445312 283.257812 C 159.597656 283.277344 158.753906 283.257812 157.90625 283.195312 C 157.0625 283.132812 156.222656 283.027344 155.386719 282.882812 C 154.550781 282.738281 153.726562 282.550781 152.910156 282.328125 C 152.09375 282.101562 151.289062 281.835938 150.496094 281.53125 C 149.707031 281.226562 148.933594 280.882812 148.175781 280.5 C 147.417969 280.121094 146.683594 279.703125 145.964844 279.25 C 145.25 278.796875 144.558594 278.3125 143.886719 277.789062 C 143.21875 277.269531 142.578125 276.71875 141.964844 276.132812 C 141.347656 275.550781 140.765625 274.9375 140.210938 274.296875 C 139.65625 273.65625 139.132812 272.988281 138.644531 272.296875 C 138.15625 271.605469 137.703125 270.890625 137.28125 270.15625 C 136.863281 269.417969 136.480469 268.664062 136.136719 267.890625 C 135.792969 267.113281 135.484375 266.324219 135.21875 265.523438 C 134.949219 264.71875 134.722656 263.902344 134.535156 263.074219 C 134.347656 262.25 134.199219 261.414062 134.09375 260.574219 C 133.988281 259.734375 133.921875 258.890625 133.898438 258.042969 L 133.898438 183.960938 C 133.898438 183.523438 133.941406 183.09375 134.027344 182.667969 C 134.113281 182.242188 134.238281 181.828125 134.402344 181.425781 C 134.570312 181.023438 134.773438 180.640625 135.015625 180.28125 C 135.257812 179.917969 135.53125 179.585938 135.839844 179.277344 C 136.144531 178.96875 136.480469 178.695312 136.839844 178.453125 C 137.203125 178.214844 137.585938 178.007812 137.984375 177.84375 C 138.386719 177.675781 138.800781 177.550781 139.226562 177.464844 C 139.652344 177.382812 140.085938 177.339844 140.519531 177.339844 C 140.953125 177.339844 141.382812 177.382812 141.8125 177.464844 C 142.238281 177.550781 142.652344 177.675781 143.050781 177.84375 C 143.453125 178.007812 143.835938 178.214844 144.195312 178.453125 C 144.558594 178.695312 144.894531 178.96875 145.199219 179.277344 C 145.507812 179.585938 145.78125 179.917969 146.023438 180.28125 C 146.265625 180.640625 146.46875 181.023438 146.636719 181.425781 C 146.800781 181.828125 146.925781 182.242188 147.011719 182.667969 C 147.097656 183.09375 147.140625 183.523438 147.140625 183.960938 L 147.140625 258.042969 C 147.1875 258.871094 147.3125 259.6875 147.519531 260.492188 C 147.726562 261.296875 148.011719 262.074219 148.371094 262.820312 C 148.730469 263.570312 149.15625 264.277344 149.65625 264.941406 C 150.152344 265.605469 150.710938 266.214844 151.328125 266.769531 C 151.945312 267.324219 152.609375 267.816406 153.320312 268.242188 C 154.035156 268.667969 154.78125 269.019531 155.566406 269.296875 C 156.347656 269.574219 157.148438 269.773438 157.96875 269.898438 C 158.789062 270.019531 159.617188 270.058594 160.445312 270.019531 L 213.273438 270.019531 C 214.101562 270.058594 214.925781 270.019531 215.75 269.898438 C 216.570312 269.773438 217.371094 269.574219 218.152344 269.296875 C 218.933594 269.019531 219.683594 268.667969 220.394531 268.242188 C 221.109375 267.816406 221.773438 267.324219 222.390625 266.769531 C 223.007812 266.214844 223.566406 265.605469 224.0625 264.941406 C 224.5625 264.277344 224.988281 263.570312 225.347656 262.820312 C 225.707031 262.074219 225.992188 261.296875 226.199219 260.492188 C 226.40625 259.6875 226.53125 258.871094 226.578125 258.042969 L 226.578125 183.960938 C 226.578125 183.523438 226.621094 183.09375 226.707031 182.667969 C 226.789062 182.242188 226.917969 181.828125 227.082031 181.425781 C 227.25 181.023438 227.453125 180.640625 227.695312 180.28125 C 227.9375 179.917969 228.210938 179.585938 228.519531 179.277344 C 228.824219 178.96875 229.160156 178.695312 229.519531 178.453125 C 229.882812 178.214844 230.265625 178.007812 230.664062 177.84375 C 231.066406 177.675781 231.480469 177.550781 231.90625 177.464844 C 232.332031 177.382812 232.765625 177.339844 233.199219 177.339844 C 233.632812 177.339844 234.0625 177.382812 234.488281 177.464844 C 234.917969 177.550781 235.332031 177.675781 235.730469 177.84375 C 236.132812 178.007812 236.515625 178.214844 236.875 178.453125 C 237.238281 178.695312 237.574219 178.96875 237.878906 179.277344 C 238.1875 179.585938 238.460938 179.917969 238.703125 180.28125 C 238.945312 180.640625 239.148438 181.023438 239.316406 181.425781 C 239.480469 181.828125 239.605469 182.242188 239.691406 182.667969 C 239.777344 183.09375 239.820312 183.523438 239.820312 183.960938 Z M 167 243.539062 L 167 197.199219 C 167 196.765625 167.042969 196.332031 167.125 195.90625 C 167.210938 195.480469 167.335938 195.066406 167.503906 194.664062 C 167.667969 194.265625 167.875 193.882812 168.113281 193.519531 C 168.355469 193.160156 168.628906 192.824219 168.9375 192.519531 C 169.246094 192.210938 169.578125 191.9375 169.941406 191.695312 C 170.300781 191.453125 170.683594 191.25 171.085938 191.082031 C 171.488281 190.917969 171.902344 190.789062 172.328125 190.707031 C 172.753906 190.621094 173.183594 190.578125 173.617188 190.578125 C 174.054688 190.578125 174.484375 190.621094 174.910156 190.707031 C 175.335938 190.789062 175.75 190.917969 176.152344 191.082031 C 176.554688 191.25 176.9375 191.453125 177.296875 191.695312 C 177.660156 191.9375 177.992188 192.210938 178.300781 192.519531 C 178.609375 192.824219 178.882812 193.160156 179.125 193.519531 C 179.363281 193.882812 179.570312 194.265625 179.734375 194.664062 C 179.902344 195.066406 180.027344 195.480469 180.113281 195.90625 C 180.195312 196.332031 180.238281 196.765625 180.238281 197.199219 L 180.238281 243.539062 C 180.238281 243.972656 180.195312 244.402344 180.113281 244.832031 C 180.027344 245.257812 179.902344 245.671875 179.734375 246.070312 C 179.570312 246.472656 179.363281 246.855469 179.125 247.214844 C 178.882812 247.578125 178.609375 247.914062 178.300781 248.21875 C 177.992188 248.527344 177.660156 248.800781 177.296875 249.042969 C 176.9375 249.285156 176.554688 249.488281 176.152344 249.65625 C 175.75 249.820312 175.335938 249.945312 174.910156 250.03125 C 174.484375 250.117188 174.054688 250.160156 173.617188 250.160156 C 173.183594 250.160156 172.753906 250.117188 172.328125 250.03125 C 171.902344 249.945312 171.488281 249.820312 171.085938 249.65625 C 170.683594 249.488281 170.300781 249.285156 169.941406 249.042969 C 169.578125 248.800781 169.246094 248.527344 168.9375 248.21875 C 168.628906 247.914062 168.355469 247.578125 168.113281 247.214844 C 167.875 246.855469 167.667969 246.472656 167.503906 246.070312 C 167.335938 245.671875 167.210938 245.257812 167.125 244.832031 C 167.042969 244.402344 167 243.972656 167 243.539062 Z M 193.480469 243.539062 L 193.480469 197.199219 C 193.480469 196.765625 193.519531 196.332031 193.605469 195.90625 C 193.691406 195.480469 193.816406 195.066406 193.984375 194.664062 C 194.148438 194.265625 194.351562 193.882812 194.59375 193.519531 C 194.835938 193.160156 195.109375 192.824219 195.417969 192.519531 C 195.726562 192.210938 196.058594 191.9375 196.421875 191.695312 C 196.78125 191.453125 197.164062 191.25 197.566406 191.082031 C 197.96875 190.917969 198.382812 190.789062 198.808594 190.707031 C 199.234375 190.621094 199.664062 190.578125 200.097656 190.578125 C 200.535156 190.578125 200.964844 190.621094 201.390625 190.707031 C 201.816406 190.789062 202.230469 190.917969 202.632812 191.082031 C 203.035156 191.25 203.414062 191.453125 203.777344 191.695312 C 204.136719 191.9375 204.472656 192.210938 204.78125 192.519531 C 205.085938 192.824219 205.363281 193.160156 205.601562 193.519531 C 205.84375 193.882812 206.046875 194.265625 206.214844 194.664062 C 206.382812 195.066406 206.507812 195.480469 206.589844 195.90625 C 206.675781 196.332031 206.71875 196.765625 206.71875 197.199219 L 206.71875 243.539062 C 206.71875 243.972656 206.675781 244.402344 206.589844 244.832031 C 206.507812 245.257812 206.382812 245.671875 206.214844 246.070312 C 206.046875 246.472656 205.84375 246.855469 205.601562 247.214844 C 205.363281 247.578125 205.085938 247.914062 204.78125 248.21875 C 204.472656 248.527344 204.136719 248.800781 203.777344 249.042969 C 203.414062 249.285156 203.035156 249.488281 202.632812 249.65625 C 202.230469 249.820312 201.816406 249.945312 201.390625 250.03125 C 200.964844 250.117188 200.535156 250.160156 200.097656 250.160156 C 199.664062 250.160156 199.234375 250.117188 198.808594 250.03125 C 198.382812 249.945312 197.96875 249.820312 197.566406 249.65625 C 197.164062 249.488281 196.78125 249.285156 196.421875 249.042969 C 196.058594 248.800781 195.726562 248.527344 195.417969 248.21875 C 195.109375 247.914062 194.835938 247.578125 194.59375 247.214844 C 194.351562 246.855469 194.148438 246.472656 193.984375 246.070312 C 193.816406 245.671875 193.691406 245.257812 193.605469 244.832031 C 193.519531 244.402344 193.480469 243.972656 193.480469 243.539062 Z M 239.820312 170.71875 L 133.898438 170.71875 C 133.464844 170.71875 133.035156 170.675781 132.609375 170.59375 C 132.179688 170.507812 131.769531 170.382812 131.367188 170.214844 C 130.964844 170.050781 130.582031 169.84375 130.222656 169.601562 C 129.859375 169.363281 129.527344 169.085938 129.21875 168.78125 C 128.910156 168.472656 128.636719 168.136719 128.394531 167.777344 C 128.152344 167.414062 127.949219 167.035156 127.785156 166.632812 C 127.617188 166.230469 127.492188 165.816406 127.40625 165.390625 C 127.320312 164.964844 127.28125 164.535156 127.28125 164.097656 C 127.28125 163.664062 127.320312 163.234375 127.40625 162.808594 C 127.492188 162.382812 127.617188 161.96875 127.785156 161.566406 C 127.949219 161.164062 128.152344 160.78125 128.394531 160.421875 C 128.636719 160.058594 128.910156 159.726562 129.21875 159.417969 C 129.527344 159.109375 129.859375 158.835938 130.222656 158.59375 C 130.582031 158.351562 130.964844 158.148438 131.367188 157.984375 C 131.769531 157.816406 132.179688 157.691406 132.609375 157.605469 C 133.035156 157.523438 133.464844 157.480469 133.898438 157.480469 L 160.378906 157.480469 L 160.378906 144.238281 C 160.378906 143.804688 160.421875 143.375 160.507812 142.949219 C 160.589844 142.519531 160.714844 142.109375 160.882812 141.707031 C 161.050781 141.304688 161.253906 140.921875 161.496094 140.5625 C 161.738281 140.199219 162.011719 139.867188 162.316406 139.558594 C 162.625 139.25 162.960938 138.976562 163.320312 138.734375 C 163.683594 138.492188 164.0625 138.289062 164.464844 138.125 C 164.867188 137.957031 165.28125 137.832031 165.707031 137.746094 C 166.132812 137.660156 166.566406 137.621094 167 137.621094 L 206.71875 137.621094 C 207.152344 137.621094 207.585938 137.660156 208.011719 137.746094 C 208.4375 137.832031 208.851562 137.957031 209.253906 138.125 C 209.652344 138.289062 210.035156 138.492188 210.398438 138.734375 C 210.757812 138.976562 211.09375 139.25 211.398438 139.558594 C 211.707031 139.867188 211.980469 140.199219 212.222656 140.5625 C 212.464844 140.921875 212.667969 141.304688 212.835938 141.707031 C 213 142.109375 213.125 142.519531 213.210938 142.949219 C 213.296875 143.375 213.339844 143.804688 213.339844 144.238281 L 213.339844 157.480469 L 239.820312 157.480469 C 240.253906 157.480469 240.683594 157.523438 241.109375 157.605469 C 241.535156 157.691406 241.949219 157.816406 242.351562 157.984375 C 242.753906 158.148438 243.136719 158.351562 243.496094 158.59375 C 243.859375 158.835938 244.191406 159.109375 244.5 159.417969 C 244.808594 159.726562 245.082031 160.058594 245.324219 160.421875 C 245.566406 160.78125 245.769531 161.164062 245.933594 161.566406 C 246.101562 161.96875 246.226562 162.382812 246.3125 162.808594 C 246.394531 163.234375 246.4375 163.664062 246.4375 164.097656 C 246.4375 164.535156 246.394531 164.964844 246.3125 165.390625 C 246.226562 165.816406 246.101562 166.230469 245.933594 166.632812 C 245.769531 167.035156 245.566406 167.414062 245.324219 167.777344 C 245.082031 168.136719 244.808594 168.472656 244.5 168.78125 C 244.191406 169.085938 243.859375 169.363281 243.496094 169.601562 C 243.136719 169.84375 242.753906 170.050781 242.351562 170.214844 C 241.949219 170.382812 241.535156 170.507812 241.109375 170.59375 C 240.683594 170.675781 240.253906 170.71875 239.820312 170.71875 Z M 239.820312 170.71875 " fill-opacity="1" fill-rule="nonzero"/></g><g fill="#000000" fill-opacity="1"><g transform="translate(66.179279, 113.593377)"><g><path d="M 25.84375 -25.8125 L 9.734375 -28.75 L 9.34375 -28.359375 L 2.453125 -21.484375 L 11.96875 -11.953125 L 4.0625 -4.046875 L -30.09375 -38.25 L -15.296875 -53.03125 C -12.265625 -56.0625 -9.128906 -58.1875 -5.890625 -59.40625 C -2.648438 -60.625 0.5 -60.90625 3.5625 -60.25 C 6.625 -59.601562 9.421875 -58.007812 11.953125 -55.46875 C 14.484375 -52.925781 16.054688 -50.125 16.671875 -47.0625 C 17.296875 -44 16.972656 -40.851562 15.703125 -37.625 L 34.34375 -34.296875 Z M 3.9375 -47.46875 C 2.019531 -49.382812 -0.0664062 -50.238281 -2.328125 -50.03125 C -4.597656 -49.820312 -6.921875 -48.53125 -9.296875 -46.15625 L -15.75 -39.71875 L -3.84375 -27.78125 L 2.609375 -34.21875 C 4.984375 -36.59375 6.269531 -38.921875 6.46875 -41.203125 C 6.664062 -43.492188 5.820312 -45.582031 3.9375 -47.46875 Z M 3.9375 -47.46875 "/></g></g></g><g fill="#000000" fill-opacity="1"><g transform="translate(97.701803, 81.652776)"><g><path d="M 27.25 -36.1875 C 27.3125 -36.070312 27.71875 -35.1875 28.46875 -33.53125 L 3.875 -19.90625 C 5.4375 -18.144531 7.363281 -17.132812 9.65625 -16.875 C 11.957031 -16.625 14.335938 -17.179688 16.796875 -18.546875 C 18.492188 -19.484375 19.859375 -20.566406 20.890625 -21.796875 C 21.921875 -23.023438 22.695312 -24.492188 23.21875 -26.203125 L 31.25 -23.546875 C 30.125 -18.347656 26.617188 -14.117188 20.734375 -10.859375 C 17.078125 -8.828125 13.441406 -7.742188 9.828125 -7.609375 C 6.210938 -7.472656 2.9375 -8.25 0 -9.9375 C -2.9375 -11.625 -5.296875 -14.082031 -7.078125 -17.3125 C -8.847656 -20.488281 -9.679688 -23.773438 -9.578125 -27.171875 C -9.472656 -30.566406 -8.5 -33.710938 -6.65625 -36.609375 C -4.820312 -39.503906 -2.273438 -41.851562 0.984375 -43.65625 C 4.171875 -45.425781 7.429688 -46.335938 10.765625 -46.390625 C 14.109375 -46.453125 17.222656 -45.613281 20.109375 -43.875 C 22.992188 -42.132812 25.375 -39.570312 27.25 -36.1875 Z M 5 -36.5625 C 2.863281 -35.382812 1.40625 -33.789062 0.625 -31.78125 C -0.15625 -29.769531 -0.125 -27.628906 0.71875 -25.359375 L 16.734375 -34.234375 C 15.265625 -36.097656 13.460938 -37.242188 11.328125 -37.671875 C 9.203125 -38.097656 7.09375 -37.726562 5 -36.5625 Z M 5 -36.5625 "/></g></g></g><g fill="#000000" fill-opacity="1"><g transform="translate(128.385006, 60.511709)"><g><path d="M 45.734375 -45.75 C 50.316406 -46.507812 54.179688 -45.757812 57.328125 -43.5 C 60.472656 -41.238281 62.492188 -37.40625 63.390625 -32 L 66.84375 -11.015625 L 56.203125 -9.265625 L 53.015625 -28.609375 C 52.535156 -31.523438 51.578125 -33.597656 50.140625 -34.828125 C 48.703125 -36.066406 46.867188 -36.503906 44.640625 -36.140625 C 42.148438 -35.722656 40.3125 -34.585938 39.125 -32.734375 C 37.9375 -30.878906 37.601562 -28.359375 38.125 -25.171875 L 41.15625 -6.78125 L 30.53125 -5.03125 L 27.34375 -24.375 C 26.382812 -30.15625 23.585938 -32.664062 18.953125 -31.90625 C 16.503906 -31.5 14.6875 -30.367188 13.5 -28.515625 C 12.320312 -26.660156 11.992188 -24.140625 12.515625 -20.953125 L 15.546875 -2.5625 L 4.90625 -0.8125 L -1.140625 -37.46875 L 9.015625 -39.140625 L 9.71875 -34.921875 C 10.8125 -36.679688 12.28125 -38.132812 14.125 -39.28125 C 15.976562 -40.425781 18.085938 -41.191406 20.453125 -41.578125 C 23.046875 -42.003906 25.46875 -41.878906 27.71875 -41.203125 C 29.96875 -40.523438 31.894531 -39.316406 33.5 -37.578125 C 34.6875 -39.734375 36.335938 -41.519531 38.453125 -42.9375 C 40.578125 -44.363281 43.003906 -45.300781 45.734375 -45.75 Z M 45.734375 -45.75 "/></g></g></g><g fill="#000000" fill-opacity="1"><g transform="translate(192.733549, 51.006863)"><g><path d="M 22.171875 4.6875 C 18.328125 3.96875 15.023438 2.519531 12.265625 0.34375 C 9.503906 -1.820312 7.53125 -4.488281 6.34375 -7.65625 C 5.15625 -10.832031 4.898438 -14.234375 5.578125 -17.859375 C 6.253906 -21.484375 7.710938 -24.554688 9.953125 -27.078125 C 12.203125 -29.609375 15.003906 -31.390625 18.359375 -32.421875 C 21.722656 -33.460938 25.328125 -33.625 29.171875 -32.90625 C 33.015625 -32.195312 36.300781 -30.753906 39.03125 -28.578125 C 41.769531 -26.398438 43.734375 -23.726562 44.921875 -20.5625 C 46.117188 -17.40625 46.378906 -14.015625 45.703125 -10.390625 C 45.023438 -6.765625 43.5625 -3.679688 41.3125 -1.140625 C 39.0625 1.390625 36.269531 3.171875 32.9375 4.203125 C 29.601562 5.234375 26.015625 5.394531 22.171875 4.6875 Z M 23.78125 -3.984375 C 26.5 -3.484375 28.898438 -3.988281 30.984375 -5.5 C 33.066406 -7.007812 34.394531 -9.304688 34.96875 -12.390625 C 35.539062 -15.472656 35.125 -18.09375 33.71875 -20.25 C 32.320312 -22.40625 30.265625 -23.734375 27.546875 -24.234375 C 24.835938 -24.742188 22.429688 -24.242188 20.328125 -22.734375 C 18.222656 -21.234375 16.882812 -18.941406 16.3125 -15.859375 C 15.738281 -12.773438 16.160156 -10.148438 17.578125 -7.984375 C 19.003906 -5.828125 21.070312 -4.492188 23.78125 -3.984375 Z M 23.78125 -3.984375 "/></g></g></g><g fill="#000000" fill-opacity="1"><g transform="translate(231.953247, 57.862188)"><g><path d="M 53.6875 -15.796875 L 23.6875 11.140625 L 13.625 6.40625 L 15.3125 -33.859375 L 25.375 -29.125 L 23.9375 -1.875 L 44.3125 -20.21875 Z M 53.6875 -15.796875 "/></g></g></g><g fill="#000000" fill-opacity="1"><g transform="translate(264.887456, 72.469406)"><g><path d="M 43.640625 12.125 C 43.546875 12.226562 42.875 12.9375 41.625 14.25 L 19.953125 -3.65625 C 18.878906 -1.5625 18.644531 0.597656 19.25 2.828125 C 19.851562 5.054688 21.238281 7.066406 23.40625 8.859375 C 24.894531 10.085938 26.398438 10.957031 27.921875 11.46875 C 29.441406 11.976562 31.097656 12.164062 32.890625 12.03125 L 33.34375 20.46875 C 28.101562 21.320312 22.890625 19.609375 17.703125 15.328125 C 14.472656 12.660156 12.132812 9.671875 10.6875 6.359375 C 9.238281 3.054688 8.765625 -0.269531 9.265625 -3.625 C 9.765625 -6.976562 11.1875 -10.078125 13.53125 -12.921875 C 15.851562 -15.722656 18.609375 -17.695312 21.796875 -18.84375 C 24.992188 -20 28.273438 -20.242188 31.640625 -19.578125 C 35.003906 -18.921875 38.125 -17.40625 41 -15.03125 C 43.800781 -12.71875 45.835938 -10.019531 47.109375 -6.9375 C 48.390625 -3.851562 48.742188 -0.648438 48.171875 2.671875 C 47.609375 5.992188 46.097656 9.144531 43.640625 12.125 Z M 35.859375 -8.71875 C 33.984375 -10.269531 31.96875 -11.039062 29.8125 -11.03125 C 27.65625 -11.019531 25.675781 -10.207031 23.875 -8.59375 L 37.96875 3.046875 C 39.175781 1.015625 39.585938 -1.070312 39.203125 -3.21875 C 38.816406 -5.363281 37.703125 -7.195312 35.859375 -8.71875 Z M 35.859375 -8.71875 "/></g></g></g><g fill="#000000" fill-opacity="1"><g transform="translate(294.820616, 98.156052)"><g/></g></g></svg>