<svg xmlns="http://www.w3.org/2000/svg" xmlns:xlink="http://www.w3.org/1999/xlink" width="500" zoomAndPan="magnify" viewBox="0 0 375 374.999991" height="500" preserveAspectRatio="xMidYMid meet" version="1.0"><defs><g/><clipPath id="fa037420dd"><path d="M 80.066406 104.046875 L 300.640625 104.046875 L 300.640625 324.621094 L 80.066406 324.621094 Z M 80.066406 104.046875 " clip-rule="nonzero"/></clipPath></defs><g clip-path="url(#fa037420dd)"><path fill="#ffbd59" d="M 301.714844 214.867188 C 301.714844 216.679688 301.671875 218.492188 301.582031 220.304688 C 301.492188 222.117188 301.359375 223.925781 301.183594 225.730469 C 301.003906 227.535156 300.78125 229.335938 300.515625 231.128906 C 300.25 232.921875 299.941406 234.710938 299.585938 236.488281 C 299.230469 238.269531 298.835938 240.039062 298.394531 241.796875 C 297.953125 243.554688 297.46875 245.304688 296.941406 247.039062 C 296.417969 248.773438 295.847656 250.496094 295.238281 252.203125 C 294.625 253.914062 293.972656 255.605469 293.277344 257.28125 C 292.585938 258.957031 291.851562 260.613281 291.074219 262.253906 C 290.300781 263.894531 289.484375 265.511719 288.628906 267.113281 C 287.773438 268.710938 286.878906 270.289062 285.949219 271.847656 C 285.015625 273.402344 284.042969 274.933594 283.035156 276.441406 C 282.027344 277.949219 280.984375 279.433594 279.90625 280.890625 C 278.824219 282.347656 277.707031 283.777344 276.558594 285.179688 C 275.40625 286.578125 274.222656 287.953125 273.003906 289.296875 C 271.785156 290.640625 270.535156 291.953125 269.253906 293.238281 C 267.972656 294.519531 266.65625 295.769531 265.3125 296.988281 C 263.96875 298.207031 262.597656 299.390625 261.195312 300.539062 C 259.792969 301.691406 258.363281 302.808594 256.90625 303.886719 C 255.449219 304.96875 253.964844 306.011719 252.457031 307.019531 C 250.949219 308.027344 249.417969 308.996094 247.863281 309.929688 C 246.308594 310.863281 244.730469 311.757812 243.128906 312.613281 C 241.53125 313.464844 239.910156 314.28125 238.269531 315.058594 C 236.628906 315.832031 234.972656 316.566406 233.296875 317.261719 C 231.621094 317.957031 229.929688 318.609375 228.222656 319.21875 C 226.515625 319.832031 224.792969 320.398438 223.054688 320.925781 C 221.320312 321.453125 219.574219 321.9375 217.8125 322.378906 C 216.054688 322.816406 214.285156 323.214844 212.507812 323.570312 C 210.726562 323.921875 208.941406 324.234375 207.144531 324.5 C 205.351562 324.765625 203.550781 324.988281 201.746094 325.164062 C 199.941406 325.34375 198.132812 325.476562 196.320312 325.566406 C 194.511719 325.652344 192.699219 325.699219 190.882812 325.699219 C 189.070312 325.699219 187.257812 325.652344 185.445312 325.566406 C 183.632812 325.476562 181.824219 325.34375 180.019531 325.164062 C 178.214844 324.988281 176.414062 324.765625 174.621094 324.5 C 172.828125 324.234375 171.039062 323.921875 169.261719 323.570312 C 167.484375 323.214844 165.714844 322.816406 163.953125 322.378906 C 162.195312 321.9375 160.445312 321.453125 158.710938 320.925781 C 156.976562 320.398438 155.253906 319.832031 153.546875 319.21875 C 151.839844 318.609375 150.144531 317.957031 148.46875 317.261719 C 146.792969 316.566406 145.136719 315.832031 143.496094 315.058594 C 141.859375 314.28125 140.238281 313.464844 138.636719 312.613281 C 137.039062 311.757812 135.460938 310.863281 133.90625 309.929688 C 132.347656 308.996094 130.816406 308.027344 129.308594 307.019531 C 127.800781 306.011719 126.320312 304.96875 124.863281 303.886719 C 123.40625 302.808594 121.976562 301.691406 120.574219 300.539062 C 119.171875 299.390625 117.796875 298.207031 116.453125 296.988281 C 115.109375 295.769531 113.796875 294.519531 112.515625 293.238281 C 111.230469 291.953125 109.980469 290.640625 108.761719 289.296875 C 107.546875 287.953125 106.359375 286.578125 105.210938 285.179688 C 104.058594 283.777344 102.945312 282.347656 101.863281 280.890625 C 100.78125 279.433594 99.738281 277.949219 98.730469 276.441406 C 97.722656 274.933594 96.753906 273.402344 95.820312 271.847656 C 94.886719 270.289062 93.992188 268.710938 93.140625 267.113281 C 92.285156 265.511719 91.46875 263.894531 90.691406 262.253906 C 89.917969 260.613281 89.183594 258.957031 88.488281 257.28125 C 87.792969 255.605469 87.140625 253.914062 86.53125 252.203125 C 85.917969 250.496094 85.351562 248.773438 84.824219 247.039062 C 84.296875 245.304688 83.8125 243.554688 83.375 241.796875 C 82.933594 240.039062 82.535156 238.269531 82.183594 236.488281 C 81.828125 234.710938 81.519531 232.921875 81.25 231.128906 C 80.984375 229.335938 80.765625 227.535156 80.585938 225.730469 C 80.40625 223.925781 80.273438 222.117188 80.1875 220.304688 C 80.097656 218.492188 80.050781 216.679688 80.050781 214.867188 C 80.050781 213.054688 80.097656 211.242188 80.1875 209.429688 C 80.273438 207.617188 80.40625 205.808594 80.585938 204.003906 C 80.765625 202.199219 80.984375 200.398438 81.25 198.605469 C 81.519531 196.808594 81.828125 195.023438 82.183594 193.246094 C 82.535156 191.464844 82.933594 189.695312 83.375 187.9375 C 83.8125 186.175781 84.296875 184.429688 84.824219 182.695312 C 85.351562 180.957031 85.917969 179.238281 86.53125 177.527344 C 87.140625 175.820312 87.792969 174.128906 88.488281 172.453125 C 89.183594 170.777344 89.917969 169.121094 90.691406 167.480469 C 91.46875 165.839844 92.285156 164.222656 93.140625 162.621094 C 93.992188 161.023438 94.886719 159.445312 95.820312 157.886719 C 96.753906 156.332031 97.722656 154.800781 98.730469 153.292969 C 99.738281 151.785156 100.78125 150.300781 101.863281 148.84375 C 102.945312 147.386719 104.058594 145.957031 105.210938 144.554688 C 106.359375 143.152344 107.546875 141.78125 108.761719 140.4375 C 109.980469 139.09375 111.230469 137.78125 112.515625 136.496094 C 113.796875 135.214844 115.109375 133.964844 116.453125 132.746094 C 117.796875 131.527344 119.171875 130.34375 120.574219 129.191406 C 121.976562 128.042969 123.40625 126.925781 124.863281 125.847656 C 126.320312 124.765625 127.800781 123.722656 129.308594 122.714844 C 130.816406 121.707031 132.347656 120.734375 133.90625 119.804688 C 135.460938 118.871094 137.039062 117.976562 138.636719 117.121094 C 140.238281 116.265625 141.859375 115.453125 143.496094 114.675781 C 145.136719 113.902344 146.792969 113.164062 148.46875 112.472656 C 150.144531 111.777344 151.839844 111.125 153.546875 110.515625 C 155.253906 109.902344 156.976562 109.335938 158.710938 108.808594 C 160.445312 108.28125 162.195312 107.796875 163.953125 107.355469 C 165.714844 106.914062 167.484375 106.519531 169.261719 106.164062 C 171.039062 105.8125 172.828125 105.5 174.621094 105.234375 C 176.414062 104.96875 178.214844 104.746094 180.019531 104.570312 C 181.824219 104.390625 183.632812 104.257812 185.445312 104.167969 C 187.257812 104.078125 189.070312 104.035156 190.882812 104.035156 C 192.699219 104.035156 194.511719 104.078125 196.320312 104.167969 C 198.132812 104.257812 199.941406 104.390625 201.746094 104.570312 C 203.550781 104.746094 205.351562 104.96875 207.144531 105.234375 C 208.941406 105.5 210.726562 105.8125 212.507812 106.164062 C 214.285156 106.519531 216.054688 106.914062 217.8125 107.355469 C 219.574219 107.796875 221.320312 108.28125 223.054688 108.808594 C 224.792969 109.335938 226.515625 109.902344 228.222656 110.515625 C 229.929688 111.125 231.621094 111.777344 233.296875 112.472656 C 234.972656 113.164062 236.628906 113.902344 238.269531 114.675781 C 239.910156 115.453125 241.53125 116.265625 243.128906 117.121094 C 244.730469 117.976562 246.308594 118.871094 247.863281 119.804688 C 249.417969 120.734375 250.949219 121.707031 252.457031 122.714844 C 253.964844 123.722656 255.449219 124.765625 256.90625 125.847656 C 258.363281 126.925781 259.792969 128.042969 261.195312 129.191406 C 262.597656 130.34375 263.96875 131.527344 265.3125 132.746094 C 266.65625 133.964844 267.972656 135.214844 269.253906 136.496094 C 270.535156 137.78125 271.785156 139.09375 273.003906 140.4375 C 274.222656 141.78125 275.40625 143.152344 276.558594 144.554688 C 277.707031 145.957031 278.824219 147.386719 279.90625 148.84375 C 280.984375 150.300781 282.027344 151.785156 283.035156 153.292969 C 284.042969 154.800781 285.015625 156.332031 285.949219 157.886719 C 286.878906 159.445312 287.773438 161.023438 288.628906 162.621094 C 289.484375 164.222656 290.300781 165.839844 291.074219 167.480469 C 291.851562 169.121094 292.585938 170.777344 293.277344 172.453125 C 293.972656 174.128906 294.625 175.820312 295.238281 177.527344 C 295.847656 179.238281 296.417969 180.957031 296.941406 182.695312 C 297.46875 184.429688 297.953125 186.175781 298.394531 187.9375 C 298.835938 189.695312 299.230469 191.464844 299.585938 193.246094 C 299.941406 195.023438 300.25 196.808594 300.515625 198.605469 C 300.78125 200.398438 301.003906 202.199219 301.183594 204.003906 C 301.359375 205.808594 301.492188 207.617188 301.582031 209.429688 C 301.671875 211.242188 301.714844 213.054688 301.714844 214.867188 Z M 301.714844 214.867188 " fill-opacity="1" fill-rule="nonzero"/></g><path fill="#ffffff" d="M 147.996094 268.421875 L 147.996094 161.3125 L 233.769531 161.3125 L 233.769531 268.421875 L 193.804688 233.125 Z M 147.996094 268.421875 " fill-opacity="1" fill-rule="nonzero"/><g fill="#000000" fill-opacity="1"><g transform="translate(61.181091, 208.938459)"><g><path d="M 2.96875 -18.734375 C 2.570312 -15.398438 1.734375 -12.234375 0.453125 -9.234375 C -0.816406 -6.242188 -2.28125 -3.890625 -3.9375 -2.171875 L -10.890625 -6.359375 C -9.359375 -8.003906 -8.039062 -10.019531 -6.9375 -12.40625 C -5.84375 -14.800781 -5.148438 -17.242188 -4.859375 -19.734375 C -4.535156 -22.492188 -4.703125 -24.582031 -5.359375 -26 C -6.023438 -27.414062 -7.039062 -28.207031 -8.40625 -28.375 C -9.40625 -28.488281 -10.28125 -28.191406 -11.03125 -27.484375 C -11.789062 -26.785156 -12.441406 -25.847656 -12.984375 -24.671875 C -13.535156 -23.492188 -14.175781 -21.894531 -14.90625 -19.875 C -16.039062 -16.757812 -17.113281 -14.222656 -18.125 -12.265625 C -19.132812 -10.316406 -20.566406 -8.707031 -22.421875 -7.4375 C -24.273438 -6.175781 -26.601562 -5.710938 -29.40625 -6.046875 C -31.851562 -6.335938 -33.988281 -7.257812 -35.8125 -8.8125 C -37.632812 -10.375 -38.96875 -12.554688 -39.8125 -15.359375 C -40.664062 -18.160156 -40.863281 -21.484375 -40.40625 -25.328125 C -40.09375 -28.015625 -39.460938 -30.601562 -38.515625 -33.09375 C -37.578125 -35.59375 -36.394531 -37.726562 -34.96875 -39.5 L -27.921875 -35.625 C -30.578125 -31.988281 -32.132812 -28.226562 -32.59375 -24.34375 C -32.914062 -21.625 -32.710938 -19.5625 -31.984375 -18.15625 C -31.265625 -16.75 -30.175781 -15.960938 -28.71875 -15.796875 C -27.28125 -15.617188 -26.117188 -16.238281 -25.234375 -17.65625 C -24.359375 -19.070312 -23.398438 -21.285156 -22.359375 -24.296875 C -21.222656 -27.410156 -20.148438 -29.945312 -19.140625 -31.90625 C -18.128906 -33.863281 -16.71875 -35.472656 -14.90625 -36.734375 C -13.101562 -38.003906 -10.789062 -38.472656 -7.96875 -38.140625 C -5.570312 -37.859375 -3.460938 -36.925781 -1.640625 -35.34375 C 0.179688 -33.757812 1.515625 -31.554688 2.359375 -28.734375 C 3.210938 -25.910156 3.414062 -22.578125 2.96875 -18.734375 Z M 2.96875 -18.734375 "/></g></g></g><g fill="#000000" fill-opacity="1"><g transform="translate(64.645366, 175.225964)"><g><path d="M -24.390625 -28.375 C -22.546875 -33.0625 -20.007812 -36.222656 -16.78125 -37.859375 C -13.5625 -39.503906 -9.695312 -39.445312 -5.1875 -37.6875 L 12.125 -30.890625 L 8.890625 -22.65625 L 5.109375 -24.140625 C 7.285156 -21.378906 7.488281 -17.742188 5.71875 -13.234375 C 4.800781 -10.910156 3.609375 -9.046875 2.140625 -7.640625 C 0.679688 -6.234375 -0.914062 -5.351562 -2.65625 -5 C -4.40625 -4.644531 -6.160156 -4.8125 -7.921875 -5.5 C -10.734375 -6.601562 -12.53125 -8.535156 -13.3125 -11.296875 C -14.101562 -14.054688 -13.628906 -17.65625 -11.890625 -22.09375 L -9.140625 -29.078125 C -11.054688 -29.828125 -12.757812 -29.820312 -14.25 -29.0625 C -15.738281 -28.3125 -16.941406 -26.769531 -17.859375 -24.4375 C -18.492188 -22.820312 -18.863281 -21.132812 -18.96875 -19.375 C -19.070312 -17.613281 -18.90625 -16.023438 -18.46875 -14.609375 L -25.84375 -13.859375 C -26.363281 -15.960938 -26.488281 -18.296875 -26.21875 -20.859375 C -25.957031 -23.421875 -25.347656 -25.925781 -24.390625 -28.375 Z M 0.65625 -17.75 C 1.238281 -19.25 1.410156 -20.722656 1.171875 -22.171875 C 0.941406 -23.617188 0.25 -24.847656 -0.90625 -25.859375 L -4.015625 -27.0625 L -6.390625 -21.03125 C -7.804688 -17.414062 -7.332031 -15.144531 -4.96875 -14.21875 C -3.84375 -13.78125 -2.773438 -13.875 -1.765625 -14.5 C -0.753906 -15.132812 0.0507812 -16.21875 0.65625 -17.75 Z M 0.65625 -17.75 "/></g></g></g><g fill="#000000" fill-opacity="1"><g transform="translate(76.142179, 144.553231)"><g><path d="M -5.125 -48.796875 L 13.375 -18.65625 L 7.6875 -10.734375 L -26.765625 -18.578125 L -21.09375 -26.5 L 2.171875 -20.921875 L -10.40625 -41.40625 Z M -5.125 -48.796875 "/></g></g></g><g fill="#000000" fill-opacity="1"><g transform="translate(93.957249, 118.462263)"><g><path d="M 17.375 -35.703125 C 17.457031 -35.597656 17.957031 -34.910156 18.875 -33.640625 L 0 -17.796875 C 1.644531 -16.523438 3.476562 -15.972656 5.5 -16.140625 C 7.519531 -16.316406 9.472656 -17.195312 11.359375 -18.78125 C 12.660156 -19.863281 13.648438 -21.019531 14.328125 -22.25 C 15.003906 -23.476562 15.421875 -24.878906 15.578125 -26.453125 L 22.9375 -25.5 C 22.84375 -20.832031 20.539062 -16.609375 16.03125 -12.828125 C 13.21875 -10.460938 10.269531 -8.921875 7.1875 -8.203125 C 4.101562 -7.484375 1.15625 -7.601562 -1.65625 -8.5625 C -4.46875 -9.53125 -6.910156 -11.25 -8.984375 -13.71875 C -11.035156 -16.164062 -12.304688 -18.859375 -12.796875 -21.796875 C -13.285156 -24.734375 -12.976562 -27.597656 -11.875 -30.390625 C -10.78125 -33.191406 -8.976562 -35.644531 -6.46875 -37.75 C -4.03125 -39.800781 -1.378906 -41.125 1.484375 -41.71875 C 4.347656 -42.320312 7.171875 -42.117188 9.953125 -41.109375 C 12.734375 -40.097656 15.207031 -38.296875 17.375 -35.703125 Z M -1.828125 -32.3125 C -3.460938 -30.945312 -4.445312 -29.328125 -4.78125 -27.453125 C -5.113281 -25.585938 -4.734375 -23.75 -3.640625 -21.9375 L 8.65625 -32.265625 C 7.09375 -33.628906 5.351562 -34.316406 3.4375 -34.328125 C 1.53125 -34.335938 -0.222656 -33.664062 -1.828125 -32.3125 Z M -1.828125 -32.3125 "/></g></g></g><g fill="#000000" fill-opacity="1"><g transform="translate(120.85493, 96.721676)"><g/></g></g><g fill="#000000" fill-opacity="1"><g transform="translate(132.220824, 88.905634)"><g><path d="M 2 -37 L -10.84375 -32.625 L -13.421875 -40.203125 L 21.53125 -52.109375 L 24.109375 -44.53125 L 11.265625 -40.15625 L 22.34375 -7.609375 L 13.078125 -4.453125 Z M 2 -37 "/></g></g></g><g fill="#000000" fill-opacity="1"><g transform="translate(162.878616, 77.654204)"><g><path d="M 19.84375 -0.875 C 16.425781 -0.644531 13.304688 -1.148438 10.484375 -2.390625 C 7.671875 -3.628906 5.410156 -5.460938 3.703125 -7.890625 C 2.003906 -10.316406 1.046875 -13.144531 0.828125 -16.375 C 0.597656 -19.59375 1.160156 -22.523438 2.515625 -25.171875 C 3.878906 -27.828125 5.867188 -29.960938 8.484375 -31.578125 C 11.109375 -33.191406 14.128906 -34.113281 17.546875 -34.34375 C 20.960938 -34.582031 24.070312 -34.078125 26.875 -32.828125 C 29.675781 -31.585938 31.925781 -29.75 33.625 -27.3125 C 35.320312 -24.875 36.285156 -22.046875 36.515625 -18.828125 C 36.734375 -15.597656 36.164062 -12.660156 34.8125 -10.015625 C 33.457031 -7.378906 31.476562 -5.253906 28.875 -3.640625 C 26.269531 -2.035156 23.257812 -1.113281 19.84375 -0.875 Z M 19.3125 -8.609375 C 21.726562 -8.773438 23.65625 -9.722656 25.09375 -11.453125 C 26.539062 -13.191406 27.171875 -15.429688 26.984375 -18.171875 C 26.796875 -20.910156 25.867188 -23.039062 24.203125 -24.5625 C 22.535156 -26.09375 20.492188 -26.773438 18.078125 -26.609375 C 15.671875 -26.441406 13.734375 -25.488281 12.265625 -23.75 C 10.804688 -22.007812 10.171875 -19.769531 10.359375 -17.03125 C 10.546875 -14.289062 11.484375 -12.160156 13.171875 -10.640625 C 14.859375 -9.117188 16.90625 -8.441406 19.3125 -8.609375 Z M 19.3125 -8.609375 "/></g></g></g><g fill="#000000" fill-opacity="1"><g transform="translate(198.776784, 75.914826)"><g/></g></g><g fill="#000000" fill-opacity="1"><g transform="translate(212.284132, 75.763756)"><g><path d="M 35.84375 -32.53125 C 39.394531 -31.320312 42.273438 -29.675781 44.484375 -27.59375 C 46.691406 -25.507812 48.128906 -23.140625 48.796875 -20.484375 C 49.472656 -17.828125 49.300781 -15.003906 48.28125 -12.015625 C 47.269531 -9.078125 45.679688 -6.75 43.515625 -5.03125 C 41.347656 -3.320312 38.753906 -2.332031 35.734375 -2.0625 C 32.722656 -1.800781 29.441406 -2.273438 25.890625 -3.484375 L 17.8125 -6.265625 L 14.03125 4.796875 L 4.765625 1.625 L 18.5 -38.484375 Z M 27.96875 -11.21875 C 30.757812 -10.257812 33.082031 -10.132812 34.9375 -10.84375 C 36.800781 -11.5625 38.113281 -13.023438 38.875 -15.234375 C 39.644531 -17.484375 39.507812 -19.457031 38.46875 -21.15625 C 37.4375 -22.851562 35.523438 -24.179688 32.734375 -25.140625 L 25.171875 -27.734375 L 20.40625 -13.8125 Z M 27.96875 -11.21875 "/></g></g></g><g fill="#000000" fill-opacity="1"><g transform="translate(249.739728, 89.158048)"><g><path d="M 26.46875 -16.671875 C 28.269531 -17.390625 30.195312 -17.570312 32.25 -17.21875 C 34.300781 -16.875 36.382812 -16.03125 38.5 -14.6875 L 33.8125 -7.328125 C 32.96875 -7.960938 32.394531 -8.378906 32.09375 -8.578125 C 29.8125 -10.023438 27.617188 -10.519531 25.515625 -10.0625 C 23.410156 -9.601562 21.546875 -8.097656 19.921875 -5.546875 L 11.65625 7.421875 L 3.671875 2.34375 L 21.171875 -25.140625 L 28.78125 -20.296875 Z M 26.46875 -16.671875 "/></g></g></g><g fill="#000000" fill-opacity="1"><g transform="translate(268.972449, 99.97539)"><g><path d="M 13.65625 14.4375 C 11.238281 12 9.578125 9.304688 8.671875 6.359375 C 7.765625 3.421875 7.671875 0.515625 8.390625 -2.359375 C 9.109375 -5.242188 10.613281 -7.820312 12.90625 -10.09375 C 15.195312 -12.375 17.785156 -13.867188 20.671875 -14.578125 C 23.566406 -15.285156 26.484375 -15.175781 29.421875 -14.25 C 32.359375 -13.320312 35.035156 -11.640625 37.453125 -9.203125 C 39.867188 -6.773438 41.519531 -4.097656 42.40625 -1.171875 C 43.300781 1.753906 43.382812 4.65625 42.65625 7.53125 C 41.9375 10.414062 40.429688 13 38.140625 15.28125 C 35.847656 17.550781 33.257812 19.039062 30.375 19.75 C 27.488281 20.457031 24.582031 20.351562 21.65625 19.4375 C 18.738281 18.53125 16.070312 16.863281 13.65625 14.4375 Z M 19.15625 8.96875 C 20.863281 10.6875 22.84375 11.519531 25.09375 11.46875 C 27.351562 11.414062 29.453125 10.425781 31.390625 8.5 C 33.335938 6.550781 34.34375 4.453125 34.40625 2.203125 C 34.476562 -0.046875 33.660156 -2.03125 31.953125 -3.75 C 30.242188 -5.46875 28.253906 -6.3125 25.984375 -6.28125 C 23.710938 -6.25 21.601562 -5.257812 19.65625 -3.3125 C 17.71875 -1.382812 16.722656 0.710938 16.671875 2.984375 C 16.617188 5.253906 17.445312 7.25 19.15625 8.96875 Z M 19.15625 8.96875 "/></g></g></g><g fill="#000000" fill-opacity="1"><g transform="translate(293.740484, 125.513592)"><g><path d="M 34.75 -4.78125 L 39.25 2.25 L 33.140625 6.171875 L 28.765625 -0.65625 L 8.0625 12.59375 L 2.96875 4.640625 L 23.671875 -8.609375 L 20.96875 -12.84375 L 27.078125 -16.765625 L 29.78125 -12.53125 L 31 -13.3125 C 34.132812 -15.320312 37.210938 -15.984375 40.234375 -15.296875 C 43.253906 -14.617188 45.84375 -12.597656 48 -9.234375 C 48.757812 -8.046875 49.351562 -6.835938 49.78125 -5.609375 C 50.21875 -4.378906 50.429688 -3.253906 50.421875 -2.234375 L 43.3125 -0.640625 C 43.363281 -1.972656 43 -3.25 42.21875 -4.46875 C 40.675781 -6.882812 38.578125 -7.238281 35.921875 -5.53125 Z M 34.75 -4.78125 "/></g></g></g><g fill="#000000" fill-opacity="1"><g transform="translate(304.927956, 142.960079)"><g><path d="M 31.4375 -9.59375 L 35.375 -1 L 5.75 12.5625 L 1.8125 3.96875 Z M 37.515625 -7.203125 C 36.796875 -8.773438 36.671875 -10.265625 37.140625 -11.671875 C 37.609375 -13.078125 38.523438 -14.09375 39.890625 -14.71875 C 41.242188 -15.34375 42.601562 -15.367188 43.96875 -14.796875 C 45.34375 -14.234375 46.390625 -13.164062 47.109375 -11.59375 C 47.828125 -10.007812 47.972656 -8.519531 47.546875 -7.125 C 47.117188 -5.726562 46.242188 -4.726562 44.921875 -4.125 C 43.484375 -3.46875 42.066406 -3.421875 40.671875 -3.984375 C 39.285156 -4.546875 38.234375 -5.617188 37.515625 -7.203125 Z M 37.515625 -7.203125 "/></g></g></g><g fill="#000000" fill-opacity="1"><g transform="translate(311.663386, 157.320394)"><g><path d="M 44.140625 -9.40625 L 47 -0.390625 L 4.171875 13.171875 L 1.3125 4.15625 Z M 44.140625 -9.40625 "/></g></g></g><g fill="#000000" fill-opacity="1"><g transform="translate(317.325011, 170.974634)"><g><path d="M 20.28125 34.140625 C 20.15625 34.148438 19.300781 34.191406 17.71875 34.265625 L 14.859375 9.78125 C 12.898438 10.457031 11.4375 11.6875 10.46875 13.46875 C 9.5 15.25 9.15625 17.359375 9.4375 19.796875 C 9.632812 21.484375 10.0625 22.945312 10.71875 24.1875 C 11.375 25.4375 12.3125 26.554688 13.53125 27.546875 L 8.703125 33.171875 C 4.847656 30.535156 2.582031 26.296875 1.90625 20.453125 C 1.476562 16.796875 1.8125 13.484375 2.90625 10.515625 C 4 7.546875 5.71875 5.148438 8.0625 3.328125 C 10.40625 1.503906 13.179688 0.40625 16.390625 0.03125 C 19.566406 -0.34375 22.515625 0.0703125 25.234375 1.28125 C 27.960938 2.488281 30.191406 4.320312 31.921875 6.78125 C 33.648438 9.238281 34.707031 12.09375 35.09375 15.34375 C 35.457031 18.507812 35.101562 21.453125 34.03125 24.171875 C 32.96875 26.898438 31.25 29.144531 28.875 30.90625 C 26.507812 32.664062 23.644531 33.742188 20.28125 34.140625 Z M 28 16.234375 C 27.75 14.109375 26.9375 12.394531 25.5625 11.09375 C 24.1875 9.789062 22.441406 9.101562 20.328125 9.03125 L 22.1875 24.96875 C 24.1875 24.40625 25.710938 23.328125 26.765625 21.734375 C 27.828125 20.148438 28.238281 18.316406 28 16.234375 Z M 28 16.234375 "/></g></g></g></svg>