<svg xmlns="http://www.w3.org/2000/svg" xmlns:xlink="http://www.w3.org/1999/xlink" width="500" zoomAndPan="magnify" viewBox="0 0 375 374.999991" height="500" preserveAspectRatio="xMidYMid meet" version="1.0"><path fill="#132540" d="M 156.324219 11.140625 C 76.75 12.011719 12.945312 77.242188 13.824219 156.820312 C 14.691406 236.386719 79.914062 300.195312 159.496094 299.320312 C 188.882812 299 217.46875 289.695312 241.429688 272.65625 L 323.730469 354.941406 C 333.152344 364.242188 348.347656 364.144531 357.648438 354.710938 C 366.855469 345.378906 366.855469 330.367188 357.648438 321.019531 L 275.347656 238.734375 C 321.472656 173.890625 306.28125 83.921875 241.429688 37.792969 C 216.585938 20.140625 186.796875 10.804688 156.324219 11.140625 Z M 154.59375 36.078125 C 220.308594 34.242188 275.078125 86.019531 276.914062 151.75 C 276.941406 152.90625 276.96875 154.058594 276.96875 155.214844 C 276.992188 220.953125 223.710938 274.277344 157.976562 274.3125 C 92.230469 274.339844 38.910156 221.070312 38.878906 155.324219 C 38.878906 155.289062 38.878906 155.257812 38.878906 155.21875 C 38.804688 90.71875 90.113281 37.882812 154.59375 36.078125 Z M 154.59375 36.078125 " fill-opacity="1" fill-rule="nonzero"/><path fill="#132540" d="M 125.78125 66.9375 C 132.296875 64.605469 139.46875 67.988281 141.804688 74.503906 C 144.125 80.972656 140.804688 88.105469 134.355469 90.492188 C 107.136719 100.398438 89.019531 126.269531 89.019531 155.226562 C 89.019531 162.152344 83.410156 167.761719 76.492188 167.761719 C 69.570312 167.761719 63.960938 162.152344 63.960938 155.226562 C 63.964844 115.730469 88.664062 80.445312 125.78125 66.9375 Z M 125.78125 66.9375 " fill-opacity="1" fill-rule="nonzero"/></svg>