<svg xmlns="http://www.w3.org/2000/svg" xmlns:xlink="http://www.w3.org/1999/xlink" width="500" zoomAndPan="magnify" viewBox="0 0 375 374.999991" height="500" preserveAspectRatio="xMidYMid meet" version="1.0"><defs><clipPath id="c4603b1e61"><path d="M 41.21875 8.746094 L 337.46875 8.746094 L 337.46875 366.496094 L 41.21875 366.496094 Z M 41.21875 8.746094 " clip-rule="nonzero"/></clipPath><clipPath id="0f13f5efd9"><path d="M 189 8.746094 L 337.46875 8.746094 L 337.46875 366.496094 L 189 366.496094 Z M 189 8.746094 " clip-rule="nonzero"/></clipPath></defs><g clip-path="url(#c4603b1e61)"><path fill="#3da2a4" d="M 189.355469 8.746094 L 41.421875 58.058594 L 41.421875 155.140625 C 41.421875 239.21875 88.878906 316.027344 164.074219 353.609375 L 189.355469 366.25 L 214.613281 353.609375 C 289.832031 316.027344 337.289062 239.21875 337.289062 155.140625 L 337.289062 58.058594 L 189.355469 8.746094 " fill-opacity="1" fill-rule="nonzero"/></g><g clip-path="url(#0f13f5efd9)"><path fill="#1c3a4e" d="M 189.355469 8.746094 L 189.355469 366.25 L 214.613281 353.609375 C 289.832031 316.027344 337.289062 239.21875 337.289062 155.140625 L 337.289062 58.058594 L 189.355469 8.746094 " fill-opacity="1" fill-rule="nonzero"/></g><path fill="#3da2a4" d="M 189.355469 47.703125 L 78.40625 84.6875 L 78.40625 155.140625 C 78.40625 225.664062 117.554688 289.011719 180.613281 320.527344 L 189.355469 324.886719 L 198.09375 320.527344 C 261.179688 289.011719 300.304688 225.664062 300.304688 155.140625 L 300.304688 84.6875 L 189.355469 47.703125 " fill-opacity="1" fill-rule="nonzero"/><path fill="#3da2a4" d="M 189.355469 47.703125 L 189.355469 324.886719 L 198.09375 320.527344 C 261.179688 289.011719 300.304688 225.664062 300.304688 155.140625 L 300.304688 84.6875 L 189.355469 47.703125 " fill-opacity="1" fill-rule="nonzero"/><path fill="#facb07" d="M 267.800781 146.039062 L 250.367188 128.605469 L 177.027344 201.945312 L 142.164062 167.082031 L 124.730469 184.515625 L 177.027344 236.808594 L 267.800781 146.039062 " fill-opacity="1" fill-rule="nonzero"/></svg>